<svg id="Layer_1" data-name="Layer 1" xmlns="http://www.w3.org/2000/svg" viewBox="0 0 374.73 111.21"><defs><style>.cls-1{fill:#fff;}.cls-2{fill:none;}.cls-3,.cls-5{fill:#ed1c24;}.cls-4{fill:#e6e7e8;}.cls-4,.cls-5{fill-rule:evenodd;}</style></defs><path class="cls-1" d="M26.27,46.89H52.74a49.94,49.94,0,0,1,6.25.58V41.85A3.37,3.37,0,0,0,57,39,10.41,10.41,0,0,0,52.25,38H26.44a9.76,9.76,0,0,1-4.77-1.16c-1.32-.87-2-1.74-2-2.91a3.36,3.36,0,0,1,2-2.81,9.42,9.42,0,0,1,4.77-1.16H52.08a27.63,27.63,0,0,1,14.3,3.49c3.78,2.23,5.92,5,6.09,8.43l1.64,29.76a3.37,3.37,0,0,1-2,2.81,9.34,9.34,0,0,1-4.77,1.16,9.52,9.52,0,0,1-4.93-1.16c-1.32-.78-2-1.65-2-2.81l-11.35,4H26.27c-5.75,0-10.52-1.16-14.47-3.49S5.89,67,5.89,63.56V58.91c0-3.39,2-6.2,5.91-8.53A28.4,28.4,0,0,1,26.27,46.89ZM60,62.4,59.64,59c-.33-2.72-2.63-4.07-6.74-4.07H26.27A9.34,9.34,0,0,0,21.5,56.1a3.39,3.39,0,0,0-2,2.91v4.46a3.62,3.62,0,0,0,2,2.9,9.34,9.34,0,0,0,4.77,1.17H45.34Z" transform="translate(-5.89 -3.9)"/><path class="cls-1" d="M115.69,75.58H102.21a30.73,30.73,0,0,1-14.46-3.21q-5.93-3.23-5.92-7.78V40.9H74.92A10.19,10.19,0,0,1,70,39.83a3.11,3.11,0,0,1-2-2.68,3.11,3.11,0,0,1,2-2.59,10,10,0,0,1,4.77-1.07h7.07v-9a3.11,3.11,0,0,1,2-2.59,10.19,10.19,0,0,1,4.93-1.08,10.43,10.43,0,0,1,4.77,1.08,3.09,3.09,0,0,1,2,2.59v9h27a9.94,9.94,0,0,1,4.77,1.07c1.32.8,2,1.61,2,2.59a3.1,3.1,0,0,1-2,2.68,9.26,9.26,0,0,1-4.6,1.07H95.47V64.5c0,1,.66,1.88,2,2.59a10.63,10.63,0,0,0,4.93,1.07h13c3.12,0,5.58-1.07,7.06-3.12a8.28,8.28,0,0,1,6.74-3.13c4.61,0,6.74,1.25,6.74,3.75,0,2.68-2.13,5.1-6.57,7.06A32.61,32.61,0,0,1,115.69,75.58Z" transform="translate(-5.89 -3.9)"/><path class="cls-1" d="M147.9,46.89h26.47a49.82,49.82,0,0,1,6.24.58V41.85a3.38,3.38,0,0,0-2-2.81A10.45,10.45,0,0,0,173.87,38H148.06a9.76,9.76,0,0,1-4.77-1.16c-1.31-.87-2-1.74-2-2.91a3.38,3.38,0,0,1,2-2.81,9.44,9.44,0,0,1,4.77-1.16h25.65A27.65,27.65,0,0,1,188,33.42c3.78,2.23,5.92,5,6.08,8.43l1.65,29.76a3.36,3.36,0,0,1-2,2.81A9.3,9.3,0,0,1,189,75.58a9.56,9.56,0,0,1-4.94-1.16c-1.31-.78-2-1.65-2-2.81l-11.34,4H147.9c-5.76,0-10.52-1.16-14.47-3.49s-5.92-5.13-5.92-8.53V58.91c0-3.39,2-6.2,5.92-8.53A28.4,28.4,0,0,1,147.9,46.89ZM181.6,62.4,181.27,59c-.33-2.72-2.63-4.07-6.74-4.07H147.9a9.34,9.34,0,0,0-4.77,1.16,3.39,3.39,0,0,0-2,2.91v4.46a3.62,3.62,0,0,0,2,2.9,9.34,9.34,0,0,0,4.77,1.17H167Z" transform="translate(-5.89 -3.9)"/><path class="cls-1" d="M50,97.64a36,36,0,0,1-6.2-.49A18.89,18.89,0,0,1,39,95.7a8.57,8.57,0,0,1-3.18-2.39,5.38,5.38,0,0,1,0-6.49,8.56,8.56,0,0,1,3.1-2.45,19.27,19.27,0,0,1,4.88-1.51A35.65,35.65,0,0,1,50,82.33c1.29,0,2.4,0,3.44.1s1.94.17,2.81.27,1.73.28,2.44.42,1.4.3,1.94.45v3.55H59.8l-1.45-.56c-.58-.2-1.2-.43-1.94-.63a19,19,0,0,0-2.4-.52,14.31,14.31,0,0,0-2.77-.23,17.7,17.7,0,0,0-3.1.25,10.61,10.61,0,0,0-2.73.84,5.22,5.22,0,0,0-1.94,1.48A3.52,3.52,0,0,0,42.73,90a3.65,3.65,0,0,0,.78,2.3,5.55,5.55,0,0,0,2,1.46,10.33,10.33,0,0,0,2.73.76,18.33,18.33,0,0,0,3,.25,17.85,17.85,0,0,0,2.82-.21A18.3,18.3,0,0,0,56.62,94c.66-.18,1.28-.39,1.86-.61s1-.38,1.4-.54h.79v3.51c-.75.17-1.49.31-2.15.45s-1.41.28-2.19.38c-.95.14-1.9.25-2.73.33S51.53,97.64,50,97.64Z" transform="translate(-5.89 -3.9)"/><polygon class="cls-1" points="86.31 78.73 75.22 87.75 75.22 93.43 67.45 93.43 67.45 87.92 56.21 78.73 65.01 78.73 71.5 84.42 77.79 78.73 86.31 78.73"/><path class="cls-1" d="M106.87,97.64a36,36,0,0,1-6.2-.49,18.89,18.89,0,0,1-4.88-1.45,8.49,8.49,0,0,1-3.18-2.39,5.34,5.34,0,0,1,0-6.49,8.48,8.48,0,0,1,3.1-2.45,19.15,19.15,0,0,1,4.88-1.51,35.65,35.65,0,0,1,6.32-.53c1.28,0,2.4,0,3.43.1s2,.17,2.81.27,1.74.28,2.44.42,1.41.3,2,.45v3.55h-.87l-1.45-.56c-.58-.2-1.2-.43-1.94-.63a19.4,19.4,0,0,0-2.4-.52,14.38,14.38,0,0,0-2.77-.23,17.62,17.62,0,0,0-3.1.25,10.61,10.61,0,0,0-2.73.84,5.07,5.07,0,0,0-1.94,1.48A3.53,3.53,0,0,0,99.55,90a3.6,3.6,0,0,0,.79,2.3,5.55,5.55,0,0,0,2,1.46,10.36,10.36,0,0,0,2.72.76,18.54,18.54,0,0,0,3,.25,18.75,18.75,0,0,0,5.33-.77,18.46,18.46,0,0,0,1.86-.61c.54-.2,1-.38,1.41-.54h.79v3.51c-.75.17-1.49.31-2.15.45s-1.41.28-2.19.38c-1,.14-1.91.25-2.73.33S108.36,97.64,106.87,97.64Z" transform="translate(-5.89 -3.9)"/><polygon class="cls-1" points="138.08 93.18 116.42 93.18 116.42 78.48 124.19 78.48 124.19 90.33 138.08 90.33 138.08 93.18"/><polygon class="cls-1" points="163.79 93.18 142.04 93.18 142.04 78.48 163.79 78.48 163.79 81.33 149.81 81.33 149.81 83.86 162.79 83.86 162.79 86.71 149.81 86.71 149.81 90.33 163.79 90.33 163.79 93.18"/><path class="cls-2" d="M359.68,99.7a5.78,5.78,0,1,0,0-11.56,5.43,5.43,0,0,0-1.35.18l.52.52-4.58,4.56-.29-.29a5.42,5.42,0,0,0-.08.81A5.78,5.78,0,0,0,359.68,99.7Z" transform="translate(-5.89 -3.9)"/><path class="cls-2" d="M353.68,92.81l.3.3a5.42,5.42,0,0,0-.08.81,5.79,5.79,0,1,0,5.78-5.78,5.43,5.43,0,0,0-1.35.18l-.26-.26A6.1,6.1,0,0,0,353.68,92.81Z" transform="translate(-5.89 -3.9)"/><path class="cls-2" d="M287.36,16.12a5.78,5.78,0,0,0,0,11.56,6,6,0,0,0,1.28-.15,5.79,5.79,0,0,0,4.42-4.73,6.86,6.86,0,0,0,.09-.9A5.79,5.79,0,0,0,287.36,16.12Z" transform="translate(-5.89 -3.9)"/><path class="cls-2" d="M288.42,88.6a6.05,6.05,0,0,0-1.06-.1,5.78,5.78,0,1,0,5.79,5.78,5.38,5.38,0,0,0-.12-1.14A5.79,5.79,0,0,0,288.42,88.6Z" transform="translate(-5.89 -3.9)"/><path class="cls-2" d="M272.42,52a5.78,5.78,0,1,0,4.92,8.77,5.64,5.64,0,0,0-.33-6.46A5.72,5.72,0,0,0,272.42,52Z" transform="translate(-5.89 -3.9)"/><path class="cls-2" d="M323.53,103.22a5.79,5.79,0,1,0,3.15.94A5.76,5.76,0,0,0,323.53,103.22Z" transform="translate(-5.89 -3.9)"/><path class="cls-2" d="M359.68,99.7a5.78,5.78,0,1,0,0-11.56,5.43,5.43,0,0,0-1.35.18A5.76,5.76,0,0,0,354,93.11a5.42,5.42,0,0,0-.08.81A5.78,5.78,0,0,0,359.68,99.7Z" transform="translate(-5.89 -3.9)"/><path class="cls-2" d="M323.53,103.22a5.79,5.79,0,1,0,3.15.94A5.76,5.76,0,0,0,323.53,103.22Z" transform="translate(-5.89 -3.9)"/><path class="cls-2" d="M288.42,88.6a6.05,6.05,0,0,0-1.06-.1,5.78,5.78,0,1,0,5.79,5.78,5.38,5.38,0,0,0-.12-1.14A5.79,5.79,0,0,0,288.42,88.6Z" transform="translate(-5.89 -3.9)"/><path class="cls-2" d="M272.42,52a5.78,5.78,0,1,0,4.92,8.77,5.64,5.64,0,0,0-.33-6.46A5.72,5.72,0,0,0,272.42,52Z" transform="translate(-5.89 -3.9)"/><path class="cls-2" d="M358.89,27.53a5.69,5.69,0,0,0,.83.08,6,6,0,1,0-.83-.08Z" transform="translate(-5.89 -3.9)"/><path class="cls-2" d="M287.36,16.12a5.78,5.78,0,0,0,0,11.56,6,6,0,0,0,1.28-.15,5.79,5.79,0,0,0,4.42-4.73,6.86,6.86,0,0,0,.09-.9A5.79,5.79,0,0,0,287.36,16.12Z" transform="translate(-5.89 -3.9)"/><path class="cls-2" d="M359.68,99.7a5.78,5.78,0,1,0,0-11.56,5.43,5.43,0,0,0-1.35.18A5.76,5.76,0,0,0,354,93.11a5.42,5.42,0,0,0-.08.81A5.78,5.78,0,0,0,359.68,99.7Z" transform="translate(-5.89 -3.9)"/><path class="cls-3" d="M374.5,51.77a6.1,6.1,0,0,0-5,2.67l-20,0a26,26,0,0,0-5-12.51l14.14-14.09a6.1,6.1,0,1,0-5-6,6,6,0,0,0,.24,1.59L340,37.24a26.57,26.57,0,0,0-4.42-2.91l-3.74,5.84a19.05,19.05,0,0,1,3.24,2,19.31,19.31,0,0,1,7.52,12.27,19,19,0,0,1,.28,3.22A19.33,19.33,0,0,1,326.68,76.7a19.58,19.58,0,0,1-3.18.28,18.81,18.81,0,0,1-3.29-.3A19.06,19.06,0,0,1,308,69.13a19.71,19.71,0,0,1-3.82-11.5,19.47,19.47,0,0,1,.28-3.26A19.26,19.26,0,0,1,312.17,42,18.24,18.24,0,0,1,315,40.29h0l-4-5.75A26.71,26.71,0,0,0,307.23,37L293.35,23.09a5.79,5.79,0,0,0,.12-1.19A6.11,6.11,0,1,0,287.36,28a6,6,0,0,0,1.54-.23l13.8,13.85a25.94,25.94,0,0,0-5.2,12.74l-20.07,0a6.12,6.12,0,1,0,.28,6.46l19.81,0A26.07,26.07,0,0,0,303.11,74L288.7,88.33a5.92,5.92,0,0,0-1.34-.16,6.11,6.11,0,1,0,6.12,6.11,6,6,0,0,0-.18-1.41l14.47-14.41a26.11,26.11,0,0,0,12.44,5v20.38a6.12,6.12,0,1,0,6.47-.09V83.51a26,26,0,0,0,12.62-5.14l14.38,14.44a6.73,6.73,0,0,0-.11,1.11,6.11,6.11,0,1,0,6.11-6.11,5.76,5.76,0,0,0-1.61.25l-14.14-14.2a26,26,0,0,0,5.49-13l19.81,0a6.1,6.1,0,1,0,5.27-9.14ZM359.72,16.05a5.78,5.78,0,1,1,0,11.56,5.69,5.69,0,0,1-.83-.08,5.77,5.77,0,0,1,.83-11.48ZM293.06,22.8a5.79,5.79,0,0,1-4.42,4.73,6,6,0,0,1-1.28.15,5.78,5.78,0,1,1,5.79-5.78A6.86,6.86,0,0,1,293.06,22.8Zm-15.72,38a5.78,5.78,0,1,1-.33-6.46,5.64,5.64,0,0,1,.33,6.46Zm10,39.25a5.78,5.78,0,0,1,0-11.56,6.05,6.05,0,0,1,1.06.1A5.79,5.79,0,0,1,293,93.14a5.38,5.38,0,0,1,.12,1.14A5.78,5.78,0,0,1,287.36,100.06ZM329.31,109a5.79,5.79,0,1,1-2.63-4.84A5.78,5.78,0,0,1,329.31,109ZM354,93.11a5.76,5.76,0,0,1,4.35-4.79,5.43,5.43,0,0,1,1.35-.18,5.78,5.78,0,1,1-5.78,5.78A5.42,5.42,0,0,1,354,93.11ZM374.5,63.66a5.78,5.78,0,1,1,5.79-5.78A5.78,5.78,0,0,1,374.5,63.66Z" transform="translate(-5.89 -3.9)"/><path class="cls-3" d="M323.43,3.9a6.09,6.09,0,0,0-3.2,11.29V61.28h6.34V15.22A6.09,6.09,0,0,0,323.43,3.9Zm3.14,11A5.77,5.77,0,1,1,329.21,10,5.74,5.74,0,0,1,326.57,14.85Z" transform="translate(-5.89 -3.9)"/><path class="cls-1" d="M245.75,28.82a2.34,2.34,0,0,0-1.41-.17.9.9,0,0,1-.89-.4,1.63,1.63,0,0,1-.3-1,1.75,1.75,0,0,1,.3-1,.87.87,0,0,1,.89-.39c.88,0,1.43-.24,1.65-.83a12,12,0,0,0,.19-4,.82.82,0,0,1,.37-.92,2.43,2.43,0,0,1,2.34,0,.85.85,0,0,1,.43.92l-.1,2.08a11.56,11.56,0,0,0,0,2.27.65.65,0,0,0,.76.5c1.07.06,2,.09,2.87.09s1.92,0,2.86-.09a.94.94,0,0,1,.93.36,1.53,1.53,0,0,1,.33,1,1.6,1.6,0,0,1-.33,1,1,1,0,0,1-.93.43c-1-.07-2-.1-3.13-.1a25.19,25.19,0,0,0-2.6.1c-.35,0-.57.08-.66.23a2.19,2.19,0,0,0-.13,1v8.31a3.29,3.29,0,0,0,.66,2.27,3,3,0,0,0,2.3.76,4,4,0,0,0,2.51-.76,5.24,5.24,0,0,0,1.52-2.21.8.8,0,0,1,.75-.52,2.11,2.11,0,0,1,1.19.16,1.74,1.74,0,0,1,.89.76,1.25,1.25,0,0,1,0,1.19,7.34,7.34,0,0,1-3.36,3.62,9.25,9.25,0,0,1-3.73.6,6,6,0,0,1-4.28-1.45,5.15,5.15,0,0,1-1.49-3.89V29.87A1.17,1.17,0,0,0,245.75,28.82Z" transform="translate(-5.89 -3.9)"/><path class="cls-1" d="M270.22,42.63a4.9,4.9,0,0,1-2,1,12.66,12.66,0,0,1-3.43.43A6.42,6.42,0,0,1,260,42.4,6,6,0,0,1,258.45,38a5.71,5.71,0,0,1,2.21-4.81,9.18,9.18,0,0,1,5.73-1.62c.55,0,1.24,0,2.08.07a15.24,15.24,0,0,1,2.27.23,3.73,3.73,0,0,0-1-2.56A3.58,3.58,0,0,0,267,28.06a10.34,10.34,0,0,0-3.06.43,8.27,8.27,0,0,0-2.67,1.38,1.32,1.32,0,0,1-1.12.3,1.31,1.31,0,0,1-.83-.63,1.6,1.6,0,0,1-.26-1.09,1.37,1.37,0,0,1,.63-1.05A9.79,9.79,0,0,1,263,25.72a14.6,14.6,0,0,1,3.92-.5,8.09,8.09,0,0,1,4.42,1.19,5.25,5.25,0,0,1,2.41,4.69V40a.74.74,0,0,0,.59.82,4,4,0,0,0,1.32-.13.75.75,0,0,1,.76.4,2.2,2.2,0,0,1,.23,1.05,2.27,2.27,0,0,1-.23,1.06.76.76,0,0,1-.76.36,11.87,11.87,0,0,0-1.81-.1l-2.11.1a.88.88,0,0,1-.7-.27,1.53,1.53,0,0,1-.26-.56l-.2-.46-.39.43Zm.52-8c-.63-.08-1.33-.16-2.07-.23s-1.25-.06-1.58-.06a6.72,6.72,0,0,0-4.36,1.18A3,3,0,0,0,261.58,38a3.2,3.2,0,0,0,.86,2.31,3.11,3.11,0,0,0,2.34.92,7.55,7.55,0,0,0,3.56-.89,7,7,0,0,0,2.4-2Z" transform="translate(-5.89 -3.9)"/><path class="cls-1" d="M239.58,43a5,5,0,0,1-2,1,12.28,12.28,0,0,1-3.43.43,6.46,6.46,0,0,1-4.75-1.64,6,6,0,0,1-1.58-4.42A5.74,5.74,0,0,1,230,33.5a9.22,9.22,0,0,1,5.73-1.61c.55,0,1.24,0,2.08.06a16.44,16.44,0,0,1,2.27.24,3.73,3.73,0,0,0-1-2.56,3.59,3.59,0,0,0-2.81-1.24,10.67,10.67,0,0,0-3.06.43,8.29,8.29,0,0,0-2.67,1.39,1.32,1.32,0,0,1-1.12.29,1.26,1.26,0,0,1-.83-.62,1.61,1.61,0,0,1-.26-1.09,1.39,1.39,0,0,1,.62-1.05,10.13,10.13,0,0,1,3.4-1.69,14.61,14.61,0,0,1,3.92-.49,8.09,8.09,0,0,1,4.42,1.19,5.27,5.27,0,0,1,2.41,4.69v8.85a.73.73,0,0,0,.59.83,4.29,4.29,0,0,0,1.32-.13.74.74,0,0,1,.76.39,2.27,2.27,0,0,1,.23,1.06,2.2,2.2,0,0,1-.23,1.05.75.75,0,0,1-.76.37,11.87,11.87,0,0,0-1.81-.1l-2.11.1a.88.88,0,0,1-.7-.27,1.62,1.62,0,0,1-.26-.56l-.2-.46-.39.43ZM240.1,35c-.63-.09-1.33-.16-2.07-.23s-1.26-.07-1.59-.07a6.7,6.7,0,0,0-4.35,1.19,3,3,0,0,0-1.15,2.41,3.18,3.18,0,0,0,.86,2.31,3.11,3.11,0,0,0,2.34.92,7.55,7.55,0,0,0,3.56-.89,7,7,0,0,0,2.4-2Z" transform="translate(-5.89 -3.9)"/><path class="cls-1" d="M252.43,54.77A2.45,2.45,0,0,0,251,54.6a.88.88,0,0,1-.89-.39,1.67,1.67,0,0,1-.3-1,1.76,1.76,0,0,1,.3-1,.9.9,0,0,1,.89-.39c.88,0,1.43-.23,1.65-.83a11.86,11.86,0,0,0,.2-4,.8.8,0,0,1,.36-.92,2.13,2.13,0,0,1,1.18-.3,2.08,2.08,0,0,1,1.16.3.86.86,0,0,1,.43.92l-.1,2.08a12.5,12.5,0,0,0,0,2.27.65.65,0,0,0,.76.5c1.08.06,2,.1,2.87.1s1.92,0,2.87-.1a1,1,0,0,1,.92.36,1.54,1.54,0,0,1,.33,1,1.6,1.6,0,0,1-.33,1,1,1,0,0,1-.92.43c-1-.06-2-.1-3.14-.1s-2,0-2.6.1c-.35,0-.57.08-.66.23a2.22,2.22,0,0,0-.13,1v8.31a3.29,3.29,0,0,0,.66,2.27,3,3,0,0,0,2.31.76,4,4,0,0,0,2.5-.76,5.18,5.18,0,0,0,1.52-2.2.81.81,0,0,1,.76-.53,2.08,2.08,0,0,1,1.18.16,1.7,1.7,0,0,1,.89.76,1.25,1.25,0,0,1,0,1.19,7.34,7.34,0,0,1-3.36,3.62,9.25,9.25,0,0,1-3.73.6,6,6,0,0,1-4.28-1.45,5.12,5.12,0,0,1-1.48-3.89V55.82A1.21,1.21,0,0,0,252.43,54.77Z" transform="translate(-5.89 -3.9)"/><path class="cls-1" d="M250.75,94.53a4.84,4.84,0,0,1-2,1,12.28,12.28,0,0,1-3.43.43,6.42,6.42,0,0,1-4.75-1.65A6,6,0,0,1,239,89.88a5.72,5.72,0,0,1,2.21-4.81,9.18,9.18,0,0,1,5.73-1.61c.55,0,1.24,0,2.08.06a16.89,16.89,0,0,1,2.28.23,3.73,3.73,0,0,0-1-2.56A3.58,3.58,0,0,0,247.48,80a10.34,10.34,0,0,0-3.06.43,8.47,8.47,0,0,0-2.67,1.38,1.29,1.29,0,0,1-1.12.3,1.36,1.36,0,0,1-.83-.62,1.63,1.63,0,0,1-.26-1.09,1.41,1.41,0,0,1,.63-1.06,10.16,10.16,0,0,1,3.39-1.68,14.61,14.61,0,0,1,3.92-.49,8,8,0,0,1,4.42,1.19A5.24,5.24,0,0,1,254.31,83v8.85a.75.75,0,0,0,.59.83,4.08,4.08,0,0,0,1.32-.14.75.75,0,0,1,.76.4,2.27,2.27,0,0,1,.23,1.06,2.23,2.23,0,0,1-.23,1,.73.73,0,0,1-.76.36,13.34,13.34,0,0,0-1.81-.1l-2.11.1a.88.88,0,0,1-.7-.26,1.72,1.72,0,0,1-.26-.56l-.2-.46-.39.43Zm.53-7.94c-.64-.09-1.33-.17-2.08-.23s-1.25-.07-1.58-.07a6.71,6.71,0,0,0-4.36,1.19,3,3,0,0,0-1.15,2.4,3.19,3.19,0,0,0,.86,2.31,3.08,3.08,0,0,0,2.34.93,7.55,7.55,0,0,0,3.56-.89,7.11,7.11,0,0,0,2.41-2Z" transform="translate(-5.89 -3.9)"/><path class="cls-1" d="M257.31,73.83a1.84,1.84,0,0,0-1,.1.77.77,0,0,1-.79-.43,2,2,0,0,1-.23-1,2.27,2.27,0,0,1,.23-1.06.74.74,0,0,1,.79-.33,11.11,11.11,0,0,0,2.38.23,8.84,8.84,0,0,0,2.2-.23v7.82a6.6,6.6,0,0,1,2.18-1.32,8,8,0,0,1,2.74-.46A7,7,0,0,1,271.75,80a10.45,10.45,0,0,1,2,6.57,10.26,10.26,0,0,1-2,6.47A7,7,0,0,1,265.82,96a7.55,7.55,0,0,1-2.51-.4,7.15,7.15,0,0,1-2.47-1.45,2.39,2.39,0,0,1-1,1.06,2.83,2.83,0,0,1-2,.26V74.69C257.84,74.2,257.66,73.92,257.31,73.83ZM262,81.94a8.21,8.21,0,0,0-1.22,4.63A8,8,0,0,0,262,91.13a4.39,4.39,0,0,0,7.35,0,7.88,7.88,0,0,0,1.25-4.56,8.14,8.14,0,0,0-1.25-4.63,4.4,4.4,0,0,0-7.35,0Z" transform="translate(-5.89 -3.9)"/><path class="cls-1" d="M230.78,74.17a10.48,10.48,0,0,0-2.37.16.93.93,0,0,1-1-.36,1.75,1.75,0,0,1-.33-1.09,1.65,1.65,0,0,1,.33-1,1,1,0,0,1,1-.37,16,16,0,0,0,2.84.2c1.12,0,2.4-.06,3.85-.2V92.53c0,.33.42.52,1.26.56a19.88,19.88,0,0,0,2.6-.16,1,1,0,0,1,1,.32,1.8,1.8,0,0,1,0,2.08,1.12,1.12,0,0,1-1,.43q-2.31-.2-6.07-.2a46.66,46.66,0,0,0-5.24.2.89.89,0,0,1-.89-.43,1.84,1.84,0,0,1-.29-1.09,1.66,1.66,0,0,1,.29-1,.74.74,0,0,1,.89-.29,16.76,16.76,0,0,0,2.71.16c1.14,0,1.71-.23,1.71-.56V74.79C232.07,74.42,231.64,74.21,230.78,74.17Z" transform="translate(-5.89 -3.9)"/><path class="cls-1" d="M237.37,66.43a4.75,4.75,0,0,1-1.85-.23.87.87,0,0,1-.4-.86V55.09c0-.42.25-.66.73-.73a29.63,29.63,0,0,1,3.69-.13l.93,0h.09V51.5c-2.35,0-3.9,0-4.48-.14s-1-.29-1-.62v-.6a1.85,1.85,0,0,1,1.13-1.64,4.72,4.72,0,0,1,2.44-.6c.63,0,1.23,0,1.78.07a12.19,12.19,0,0,1,1.71.36,1.06,1.06,0,0,0,1-.2,1.44,1.44,0,0,0,.63-.89,1.56,1.56,0,0,0,0-1.05,1.25,1.25,0,0,0-.9-.66,16.43,16.43,0,0,0-2.07-.4c-.57,0-1.29-.06-2.14-.06-2.33,0-4.06.51-5.18,1.55a4.49,4.49,0,0,0-1.42,3.52v.6q0,.55-.72.69a10,10,0,0,1-1.59,0,.86.86,0,0,0-.85.4,1.69,1.69,0,0,0-.27,1,1.91,1.91,0,0,0,.27,1,.91.91,0,0,0,.85.42,6.7,6.7,0,0,1,1.59,0c.48.11.72.37.72.79V65.34a.87.87,0,0,1-.66.86,3.89,3.89,0,0,1-1.74.1.58.58,0,0,0-.76.29,2,2,0,0,0-.23,1,2.16,2.16,0,0,0,.23,1.08.7.7,0,0,0,.76.43,15.44,15.44,0,0,1,2.5-.13c.75,0,2.11,0,4.09,0L239,69h1.59V66.46Z" transform="translate(-5.89 -3.9)"/><path class="cls-1" d="M253.06,66.53a1.17,1.17,0,0,0-1.12-.3,14.56,14.56,0,0,1-3,.17c-.93-.07-1.39-.37-1.39-.89V51.43c-.92,0-2.1,0-3.52,0-.68,0-1.55,0-2.4,0v2.74c.76,0,1.4,0,1.77,0,.75.07,1.12.24,1.12.5V65.51c0,.39-.36.67-1.09.82a12.4,12.4,0,0,1-1.66.13V69l10.17,0a1.26,1.26,0,0,0,1.12-.39,1.53,1.53,0,0,0,.39-1.06A1.42,1.42,0,0,0,253.06,66.53Z" transform="translate(-5.89 -3.9)"/><path class="cls-4" d="M359.72,16.07a5.78,5.78,0,1,1-5.78,5.78A5.78,5.78,0,0,1,359.72,16.07Z" transform="translate(-5.89 -3.9)"/><path class="cls-4" d="M374.57,52.15a5.78,5.78,0,1,1-5.78,5.78A5.78,5.78,0,0,1,374.57,52.15Z" transform="translate(-5.89 -3.9)"/><path class="cls-4" d="M359.77,88.2A5.78,5.78,0,1,1,354,94,5.78,5.78,0,0,1,359.77,88.2Z" transform="translate(-5.89 -3.9)"/><path class="cls-4" d="M323.6,103.28a5.78,5.78,0,1,1-5.78,5.78A5.78,5.78,0,0,1,323.6,103.28Z" transform="translate(-5.89 -3.9)"/><path class="cls-4" d="M287.45,88.54a5.78,5.78,0,1,1-5.79,5.78A5.78,5.78,0,0,1,287.45,88.54Z" transform="translate(-5.89 -3.9)"/><path class="cls-4" d="M272.47,52.07a5.78,5.78,0,1,1-5.78,5.78A5.78,5.78,0,0,1,272.47,52.07Z" transform="translate(-5.89 -3.9)"/><path class="cls-4" d="M287.42,16.17A5.78,5.78,0,1,1,281.64,22,5.78,5.78,0,0,1,287.42,16.17Z" transform="translate(-5.89 -3.9)"/><path class="cls-4" d="M323.44,4.27a5.78,5.78,0,1,1-5.78,5.78A5.78,5.78,0,0,1,323.44,4.27Z" transform="translate(-5.89 -3.9)"/><path class="cls-5" d="M246.42,44.15a3.12,3.12,0,1,1-3.12,3.12A3.12,3.12,0,0,1,246.42,44.15Z" transform="translate(-5.89 -3.9)"/></svg>