<svg id="Layer_1" class="logo_image" xmlns="http://www.w3.org/2000/svg" viewBox="0 0 591.19 584.85">
  <defs>
    <style>
      path{fill:#000000;}
			@media (prefers-color-scheme: dark) {
      	path{fill:#ffffff;}
			}
    </style>
  </defs>

<path d="M600.15,304.72A286.44,286.44,0,0,1,593.64,360c-5.59,26.69-14.2,52.41-28,76.09-7.57,13-15.32,26-24.19,38.19-7.67,10.49-16.71,20.06-25.74,29.47a280,280,0,0,1-51.2,41.66c-11.43,7.34-23.71,13.44-35.84,19.64a222.23,222.23,0,0,1-55.26,19.34c-15.74,3.35-31.74,5.55-47.7,7.71-18,2.45-36.24,1.76-54.23-.16-20.88-2.23-41.67-5.78-61.51-13-14.85-5.4-29.7-11-43.86-18-11.9-5.84-22.94-13.48-34.11-20.72-21.76-14.08-40.23-32-56.71-51.75-11.61-13.95-22.44-28.64-30.41-45.12-6-12.48-12.39-24.86-17.49-37.73a253.52,253.52,0,0,1-14.17-52.33,300.49,300.49,0,0,1-4-62.38,291.53,291.53,0,0,1,9.5-61.61,295.8,295.8,0,0,1,31.92-75.32c6.59-11.14,14.78-21.35,22.42-31.86A218.63,218.63,0,0,1,108.86,84a365,365,0,0,1,32.68-24.71,284.07,284.07,0,0,1,33.05-19.1c12.13-5.93,24.77-10.9,37.44-15.63,17.36-6.47,35.46-10.45,53.76-12.94a296.12,296.12,0,0,1,56.5-2.41A303,303,0,0,1,372.56,16a295,295,0,0,1,58.59,20.1,294.38,294.38,0,0,1,93,68.22A274.85,274.85,0,0,1,560,153.23a294.33,294.33,0,0,1,17,34.94c5.33,13,10.46,26.29,13.64,39.94,3.82,16.38,5.77,33.23,8,50C599.73,286.87,599.67,295.83,600.15,304.72ZM371.66,364.79c2.36-3.69,4.74-1.08,7.16.35a62.79,62.79,0,0,0,5.59,3.37c2.74,1.25,6.8-1.45,6.39-4.36-.55-4-1.87-7.8-2.46-11.75-.35-2.35.06-4.82.13-7.24l5.66,3.95c.68-2.29,1.55-5.25,2.61-8.83,2.89,2.55,5,4.7,7.63,1.4.24-.3,2.54.4,3.19,1.21,2.54,3.18,1.59,6.09-.92,9-3.07,3.55-2.56,6.07,1.11,7.57a39,39,0,0,1,7.47-2.36,19.6,19.6,0,0,0,2.77-.8c1.3-.53,2.54-1.19,3.8-1.8.22,1.57.87,3.23.58,4.7-.83,4.21-2.05,8.35-3.42,13.75,1.94-1.14,3.06-1.67,4-2.39,3.76-2.74,7.4-5.65,11.25-8.24.79-.53,2.33.05,3.52.11-.23,1.16-.07,2.72-.76,3.41a64.94,64.94,0,0,1-5.79,4.46c-.75.59-2,1.45-1.94,2a43.63,43.63,0,0,0,2.06,7.33c.78,2.07,1.91,4,3.15,6.54-.77.07-.34,0,.07,0,4.55-.54,9.49-5,13.39,1.42.27.44,1.92,0,2.92.05,3.25.1,5,1.94,5.84,4.95.72,2.49,1.68,4.92,2.84,8.26-2.11,5.92-8.55,2.41-13.25,3.7,3.49,6.21,3.49,6.21,8.34,4.24,7-2.85,10.31-1.6,14.12,5.25a23,23,0,0,0,2.52,3c1.38-2.44,3.15-4.32,3.51-6.44.92-5.5,6.16-5.94,9.42-8.64.59-.48,2.72.15,3.58.9,2.29,2,5.27,4,6.19,6.63,2,5.85,8.45,6.13,10.34,9.63,3.58-2.07,6.5-4.89,9.56-5.06,1.58-.08,3.42,4.56,5.4,7.45a49.4,49.4,0,0,1,7.44-1.09c3.8-.06,7.41,3.78,6.93,6.64a11,11,0,0,0,.49,3.34c.83-.92,1.69-1.8,2.48-2.76,1.72-2.08,3-4.86,5.21-6.13s5.5-1.17,8.25-1.89c1.25-.34,3-1,3.42-1.92,5.09-12.23,10.73-24.31,14.71-36.9,5.42-17.13,8.53-34.81,10.57-52.74,2.83-24.82,1.48-49.45-2.42-73.9a242.23,242.23,0,0,0-16.61-57.34c-4.7-11-10.34-21.55-15.75-32.21-.55-1.08-2.72-2.36-3.61-2.05a31.5,31.5,0,0,0-6.62,3.84c-2.69,1.77-5.22,3.78-7.94,5.49-4.33,2.72-10,3.06-13.43,7.44-.66.83-2.08,1-3.05,1.65s-2.51,1.33-2.94,2.36c-2,4.75-4.83,6.62-10,4.5-1.16-.48-3,.68-4.53,1.08l.39,1.61c3,.13,6.3-.46,9,.55,5.6,2.09,10.54,2.95,14.73-3.32,1.07,1.64,1.6,3.08,2.62,3.91,2.47,2,5.65,5.71,7.71,5.22,8-1.91,15-.58,21.27,4.38,1.17.92,2.09,3.61,1.59,4.9-.9,2.32-6.77,3.37-8.12,1.38-2.73-4-5.66-4.27-9.51-2.13a3.67,3.67,0,0,1-2.09.12,120.11,120.11,0,0,1-12.59-2.06c-6.39-1.66-12.55-4.38-19-5.55-4.36-.8-9.5-.79-13.52.8-5.71,2.24-10.71,6.27-16,9.54s-10.8,6.67-13.75,12.69c-1.2,2.45,2.38,8.88,5.05,8.75a3.07,3.07,0,0,0,2-1.28c1.65-2.53,3-5.26,4.75-7.71.74-1,2.21-1.52,3.35-2.25.18,1.26.87,2.73.45,3.75-1.3,3.16-3.18,6.08-4.5,9.23-.47,1.11-.31,3.67.08,3.78a61.91,61.91,0,0,0,11.06,2.36c2.25.23,4.61-.59,6.45-.87,1.56-2.81,3-6.15,5.07-9,4.11-5.48,10.91-6,16.68-8.49,1.26-.53,2.21-1.79,3.34-2.66,2.52-1.94,4.84-4.44,7.69-5.55,1.75-.68,4,1.06,2.67,3.87-1,2.23-2.64,4.31-3.11,6.64-.79,3.87-3,5-6.51,4.78-2.05-.13-4.11,0-6.17,0-4.68-.09-8.88,1.52-11.35,5.34a9.33,9.33,0,0,0-.56,7.55c1.11,2.65,3.76,1.51,6,.21,1.08-.63,2.94-1.16,3.85-.65,3.39,1.89,5.49.41,7.51-2.09,1.81-2.24,3.69-4.43,6.16-7.38,1,1.94,1.91,3.16,2.26,4.52,1,4.08,2.21,4.71,6,3.16,2.65-1.09,5.34-2.43,8.12-2.8,8-1,15.85-.11,22.21,5.08,3.48,2.84,6.21,3.79,10.07,1.4.57-.35,2.3.29,2.82,1s.56,2.65.12,2.93c-3,1.87-6.07,4.46-9.36,4.86-4.73.58-9.09-1.72-12.2-5.68-1.87-2.38-4.26-4.47-6.91-1.77-3.22,3.27-6.86,4-11.07,3.75a21.05,21.05,0,0,0-3.94.61,33.48,33.48,0,0,0,2.6,4c2.15,2.4,4.42,4.7,6.68,7,1.8,1.82,2.8,3.91.08,5.39-3.5,1.91-3.6,3.9-1.59,7,.6.93-.18,2.75-.33,4.16a26,26,0,0,1-4.34-.68,4.11,4.11,0,0,1-1.86-1.77c-2.75-4.35-6.34-7.46-11.5-8.66a15.11,15.11,0,0,1-5.14-2.31c-4.23-2.95-3-7-1.34-11h-5.28c0,1.69.38,3.84-.07,4a6.6,6.6,0,0,1-4.3.21c-1.87-.61-3.5-2.55-5.31-2.67a219.05,219.05,0,0,0-22.77-.38c-1.44.06-2.87,3.07-4,4.91-.16.26,1.69,2.48,2.49,2.42,4.52-.37,6.87,2.75,9.56,5.37,5.75,5.61,9.94,13.06,18.44,15.44a3.66,3.66,0,0,1,2,2.2,36.41,36.41,0,0,1,.84,5.27c-1.66-.19-3.62.13-4.92-.65-4.41-2.65-8.59-5.69-12.74-8.5-3.45,3.91-4.62,6.61.49,9.4,3.71,2,6.86,5.19,10,8.17,2.77,2.65,6.84,3,8.06-.36,1.67-4.64,3-4.36,6.5-1.74,2,1.47,3.94,2.57,2.88,4.84-.65,1.37-3,2-4.63,2.85s-3.44,1.68-5.15,2.5c.86,1.73,1.37,3.83,2.67,5.11,2.65,2.61,6.61,4.25,8.41,7.26,2.38,4,4.46,5.26,8.56,2.91.58-.34,2,.21,2.67.78.43.37.49,2.09.21,2.23-2.73,1.4-6,4.17-8.28,3.5a27.73,27.73,0,0,1-11.15-7.05c-4.94-5-8.85-11-13.67-16.11-1.65-1.76-4.67-2.32-7.15-3.2-4-1.44-8.23-2.48-12.19-4.1-2.09-.86-2.81-.49-3.53,1.48-.58,1.6-11,5.2-12.64,4.58-.82-.3-1.65-.61-2.45-1-1.06-.48-2.06-1.32-3.15-1.43s-3.09,0-3.49.71c-.6,1.07-.74,3.47-.07,4,2.78,2.12,1.42,4.35.65,6.54-.38,1.06-1.27,2.76-1.89,2.74a8.31,8.31,0,0,1-4.11-1.59c-2-1.37-3.69-4-5.82-4.37-4.13-.8-5.07-2.52-3.31-6.2-9.12-2.57-17.65-6.91-27.3-4.57-4.7,1.14-9.42,2.27-14,3.68-4.11,1.27-8,3.47-12.19,4.26-5.07,1-9.74,1.54-12.75,6.71-1.51,2.59-4.65,4.21-6.94,6.38a54.49,54.49,0,0,0-5.19,5.45c-1.53,1.9-2.76,4-4.11,6.09-1.75,2.67-3.61,5.29-5.18,8.06s-2.4,6.38-4.54,8.7c-6.41,7-13.8,13.1-17,22.48-.09.26-.37.45-.57.67-4.2,4.54-4.81,10.19-4.6,15.95.12,3.59,1,7.14,1.13,10.73a10.61,10.61,0,0,0,7.46,10.11c4.25,1.34,5.16,3.9,2.88,7.9-2.06,3.61-4.06,7.25-6,10.74l9.39,8.41c-.43-5.7,2-9.06,5.32-12.16,1.67-1.57,2.51-4,4.05-5.76.7-.81,2.68-1.65,3.21-1.26,5.3,3.82,8.07-2,12.2-2.81a13.82,13.82,0,0,0-4.53-1.51q-5.73-1.07-11.47-2.07c-2.6-.46-5.05-.88-3.72-4.64.16-.45-1.39-1.46-2.09-2.26s-1.4-1.79-2.1-2.69a13.43,13.43,0,0,1,3.22-1.51c4-.71,7.95-1.33,11.95-1.75,1.54-.16,3.14.34,4.73.43a36.36,36.36,0,0,0,6.34.12c3.67-.45,7.54-3.35,10.66,1.22l-1.8,4.86,13.82,3.2c-1.44-4.3-2.77-7.63-3.65-11.08-1.2-4.67-3.56-6.76-8.12-7.45s-8.8-1.85-12.65-2.68c1-2.86,1.34-5.11,2.45-6.9,1-1.55,2.62-3.29,4.23-3.62,1.38-.27,3.13,1.35,4.72,2.14-.31-2.41-1.6-4.35-2.6-6.44-.55-1.17-1.28-3.22-.78-3.72a5.26,5.26,0,0,1,4.17-1.46C368.15,362.07,369.72,363.56,371.66,364.79ZM420.19,111.7c8.79-3,14.18-10.42,22.88-11.37,1.86-.2,3.68-.74,5.54-1a3.86,3.86,0,0,1,.64,1.78c-1.61,1.11-3.21,2.53-5,3a19.66,19.66,0,0,0-13.47,10.6,7,7,0,0,1-6.33,4.4,36.39,36.39,0,0,0-8.12,1.52c-3.16,1.06-4.36,3.35-3.46,6.88.41,1.6.29,4-.67,5.16-3.27,3.94-7.21,7.33-10.51,11.24-1.21,1.44-2.25,4.07-1.74,5.61s2.94,2.66,4.74,3.5a42.68,42.68,0,0,0,6.46,1.82c3-2.76,6.77-4.81,11.77-4.23,3.72.44,5.4-1.54,4.24-5.49a3.58,3.58,0,0,1,.73-3,2.87,2.87,0,0,1,2.83-.09c2.82,3.11,5.37,1.73,8.15,0,.69-.43,1.88-.06,3-.06.14,3.88-2.1,5.49-4.89,6.84-4.58,2.19-6.44,6.4-7.37,11-.18.87,1.48,2.11,2.29,3.18a32,32,0,0,0,2.43-3.82c.52-1.12.7-3.53.89-3.51,5.76.42,9.08-2.8,12.85-6.71,4.08-4.24,8.47-7.59,8.87-14.17.26-4.14,2-8,5.7-10.38l5.69,4.76,1.26-.83c-.62-2.46-1.36-4.91-1.79-7.41a3.77,3.77,0,0,1,.63-3c.54-.46,2.13-.18,3,.29,2.82,1.56,6.64,2.75,3.89,7.36-.19.33.38,1.06.5,1.63,1.61,7.42,5.75,13.43,10.82,18.83,1.13,1.19,3.46,2.47,4.64,2s2.28-2.85,2.42-4.49c.43-4.81-.51-9.92.76-14.44,1.24-4.37,4.46-8.22,7.08-12.11.39-.56,2.29-.1,3.49-.12-.18,1.17-.07,2.5-.61,3.47-1.32,2.4-3.12,4.55-4.38,7-.57,1.09-.31,2.61-.42,3.93l1.87,1c1.19-1.65,2.17-3.52,3.64-4.85.8-.72,2.43-.53,3.68-.75-.05,1.41.37,3.1-.25,4.19-2,3.42-4.38,6.58-6.46,9.93-.42.67-.14,1.77-.19,2.67.92-.11,2.13.13,2.69-.37,2.72-2.44,5.24-5.1,7.88-7.62,1.17-1.12,2.48-2.09,3.73-3.13.73,1.31,1.55,2.58,2.18,3.93,1,2.09,1.31,4.9,2.9,6.22,3,2.49,2.82,5.34,2.88,8.62,0,2.23,1.25,4.44,1.93,6.66,2.32-1,5-1.5,6.83-3.07,1.48-1.3,4.8-2.8,2.2-6-9.44-11.67-18.53-23.63-28.36-35-10.63-12.27-23.2-22.52-36.22-32.22a269.45,269.45,0,0,0-65.75-36.2c-21-8-42.49-14.13-64.88-15.76-18.45-1.33-37.11-2.19-55.53-1-16.2,1.05-32.3,4.76-48.25,8.21a164.44,164.44,0,0,0-30.37,9.44c-14.54,6.29-29,13.07-42.56,21.19A275.23,275.23,0,0,0,124,95.3C110.7,106.86,99.11,120.38,86.76,133c-2.06,2.11-1.1,2.74.93,4.52,3.49,3.06,9.86.6,11.55,6.47.28,1,1.34,2.2,1,2.78a3.73,3.73,0,0,1-2.77,1.66c-1.37,0-2.73-.77-4.1-1.18L82.24,143.9l0,.73,16.43,11.51c.72-1.35,2-3.42,3-5.64,1.5-3.56,5-4.31,7.73-1.52,1.16,1.22,2.48,2.3,3.66,3.37.65-.5,1-.63,1.09-.85.77-2.15,1.36-5.33,4.18-4.29,1.62.59,2.79,3.66,3.29,5.81,1.15,4.89,1.75,9.91,2.62,15.16,4.93-1.4,5.85,1.36,5.49,5.65a6.88,6.88,0,0,0,1.06,3.64,24.26,24.26,0,0,0,2.77,3.35c.3-4.79-.61-8.71-.82-12.68-.17-3.2,2.28-4.44,5.33-3.23a26.58,26.58,0,0,0,2.75.7c-.37-1.33-.34-2.41-.86-2.91-4.35-4.12-6.2-10.67-12.66-12.84-.9-.3-1.31-2.4-1.66-3.74-.08-.33,1.13-1.47,1.46-1.37,3,1,6.45,1.51,8.62,3.47,3.8,3.44,6.79,7.8,10.11,11.77l1.62-.16c.6-3.87.24-8.27,2-11.5,3.06-5.6-1.17-7.2-4-9.79-1.26-1.17-3.57-1.82-4-3.15-1.5-4.83-5.21-7.06-9.15-9.35-.94-.55-1.3-2.09-2.42-4.05l14.95,4.2c-1.8-3.51-3.07-6-4.33-8.44,5.23-5.25,10.47-.66,15.65.21.78-6.76-7.34-3.22-8.61-7.47,5.19-5.09,4.53-10.79-1.74-13.9-4-2-8.47-3.23-12.75-4.82,1.07-3.12,6.46-3.54,9.55-.43.69.69,1.43,2.09,2,2,4-.56,7.41.22,9.64,4.68,1.69-3.82-3.35-7.86,2-9.89,4.77,5,5.26,10.19,1.52,15.13-1.71,2.27.53,8.22,3.41,8.36,1.25.06,2.71-1.26,3.82-2.24.71-.62.74-2,1.45-2.62s2.16-1.23,2.88-.92,1.17,1.89,1,2.78a7.24,7.24,0,0,1-1.77,3.44c-3.7,4-4.82,8.54-2.95,13.7,2.2,6.06,6,11.76,4.21,18.75-.1.4.94,1.09,1.49,1.69,1.19-1.93,2.22-3.51,3.17-5.14,2.52-4.3,6.19-8,6.85-13.31a4,4,0,0,1,2.93-2.55,7.9,7.9,0,0,1,5.13,1.26c.73.55.65,3,.12,4.22-1.47,3.49-3.32,6.83-5.09,10.2-1.15,2.2-2,4.76-3.73,6.39-2.63,2.47-3.18,4.43-1,7.54,1,1.51.89,3.84,1.28,5.81l-5.9.45c-1.33.1-3.38-.3-3.84.37-.71,1.06-.23,2.85-.45,4.31s-.26,3.05-1.1,3.87-2.63.93-4.23,1.41c.33,4.27-.34,7.71-6,7.22-.61,0-1.44,2.47-1.71,3l19.47,2.4.69-1.27c-1.6-1.73-3.16-3.5-4.82-5.18-3.54-3.59-3.56-3.57-1.78-5.63,2.84,1.49,5.64,3,8.46,4.44,3.28,1.69,4.61.29,4.85-3,.15-2.16.52-4.31.7-6.47a39.47,39.47,0,0,0,.2-5.21c-.14-3-.56-6-.57-9.07,0-.62,1.25-1.25,2-1.95,2.4,5.95,4.6,11.11,12,13.8-1.19-4.22-1.86-7.44-3-10.48-1.43-3.78-6.09-7-1.43-11.59.28-.28,0-1.42-.3-1.94-2.49-3.9,0-4.72,3.13-5.46s6.24-1.82,8.78-2.58c.85-7.3-3.7-10-8.6-12.19,2.79-4.54,5.8-2.21,7.92-.81s3.57,3.81,4.71,6.08c.63,1.26,0,3.15-.07,4.76-.13,3.35,1,5.06,4.85,4.88,5.59-.27,10.75,4.95,10.76,10.31,0,1,5.74,9.58,6.63,9.83a4.29,4.29,0,0,0,1.29,0l4.1-.24c-.41,2-.45,4.24-1.34,6-.73,1.47-2.43,2.47-3.76,3.62-3.44,2.94-4,6.31-1.57,9.16,3,3.51,8.09,4,11.18.86s6.22-6.64,10.14-10.85c.36,2.6,1.42,4.94.68,5.94-2.94,4-4.35,9.14-9.44,11.6-4.84,2.35-10.35,4.24-12.28,10.41,4.18,2.47,8.71,4.55,12.49,7.58,2.45,2,4,1.93,6,.11,3.15-2.92,6.19-6,9.31-8.95,4.84-4.61,11.29-7.41,14.54-13.89,1.16-2.3,1.07-3.55-.7-4.74a50,50,0,0,0-7.18-4.09c-4.28-1.94-8.78-3.44-13-5.49s-5.92-7.62-11.41-8.21c-1.09-.11-2-2-3-3.07-.7-.74-1.31-1.8-2.18-2.1-4.86-1.69-7.37-5.62-9.39-9.86-1.52-3.2-2-7-3.82-9.94-3.75-5.91-6.73-12.58-13.37-16.16a3.8,3.8,0,0,1-1.16-1.31c-2.59-4-5.07-8.08-7.78-12a12.86,12.86,0,0,0-3.52-3.16c-6.39-4.23-12.9-8.29-19.21-12.64-.85-.59-.81-2.46-1.18-3.74,1.13-.09,2.55-.67,3.33-.19,4,2.48,7.87,5.3,11.87,7.85a34.69,34.69,0,0,0,4.81,2.15,44.75,44.75,0,0,0,1-5.8c.05-1.08-.89-2.17-1-3.29a28.93,28.93,0,0,1,.4-4.42h1.53c3.61,3.57,4.69,8.18,4,13-.8,5.35,2.27,7.88,6.09,10.58.73-1.52,1.3-2.79,2-4,1.3-2.46,3.28-1.83,3.83,0,.87,3,1.64,6.44.9,9.29-.82,3.17-.07,4.9,2,6.91,3.39,3.28,6.57,6.77,9.69,10l1.39-3c1.71,1.19,2.93,2.76,4.13,2.74,3.14-.06,3.42,1.57,3.8,4,.22,1.45,1.74,2.69,2.68,4,1.45-1.29,4.12-2.61,4.11-3.89a32.57,32.57,0,0,0-2-11c-1.41-3.73-4-7-5.73-10.64-.49-1,.23-2.66.4-4,1.1.5,2.43.76,3.26,1.54a21.75,21.75,0,0,1,7.17,17c0,1.5,1.87,3.61,3.41,4.34.86.42,3.23-1.09,4.14-2.32,1.18-1.58-1.77-8.93-3.43-10.29a51.59,51.59,0,0,1-4.29-4.33l.93-1.19c3,0,6.09.15,9.12-.07a4.11,4.11,0,0,0,3-1.64,32.19,32.19,0,0,0,1.88-6.55c.73-3.37,1-6.56-2.14-9.22a61.86,61.86,0,0,1-7.61-7.83c-.85-1-.82-2.89-.91-4.39,0-.34,1.46-1.18,1.6-1.06a30.33,30.33,0,0,1,2.74,3c1.06,1.24,2.1,2.51,3.14,3.76l.36-1.64,4.64-2.15A46,46,0,0,1,265.4,83c1.42,5.17,2.61,10.4,3.94,15.83,2.23-1.17,3.81-1.92,5.32-2.8a7.14,7.14,0,0,0,3.85-7.65c-.4-3.06-2.55-3.74-5.16-4.47-1.4-.38-2.4-2.24-3.58-3.43,1.5-.18,3-.35,4.51-.55.41,0,.81-.19,2-.49-1.06-1.64-1.85-3-2.81-4.31-2.6-3.45-5.44-6.72-7.78-10.33-.71-1.09-.09-3.05-.08-4.61a15.93,15.93,0,0,1,3.19,2.51c1.32,1.68,2,4.07,5.06,2.74.36-.15,2,1.88,2.54,3.13,1,2.28,1.47,4.75,2.3,7.1.78,2.18,1.81,4.26,2.61,6.44,1.33,3.62,2.2,7.47,3.94,10.87,1.34,2.61,3.5,3.53,5.41-.13,1.08-2.09,2.85-3.83,4.52-6,3,2.83,5,4.76,2.84,9-1.68,3.32-3.09,7.92-2.08,11.17,1.34,4.36,6.17,7.48,5.58,13,0,.42.58,1,1,1.37,3.51,2.84,7,5.64,11.35,9.06,0-3.38-.12-5.84,0-8.29.17-2.9-.3-4.76-3.74-5.73-2.16-.61-3.76-3.2-6.1-5.35,7.07-2.44,10.43-8.8,7.14-12.69-2.54-3-2.8-5.85-2.73-9.22A126.87,126.87,0,0,0,308.57,76c-.24-3.06-1.52-6-2.22-9a40.12,40.12,0,0,1-.49-4.27l1.4-.62c1.42,1.71,2.85,3.41,5,6,0-4,.77-7.22-.15-9.86a28.61,28.61,0,0,0-12.78-15.42c-1.5-.89-2.28-3-3.4-4.51l1.61-1.45,14.7,12.08C325,33.1,325,33.1,328.06,33.87l-1.85,2.94c-2,3.15-5,6.08-5.73,9.49-1.88,9-2.84,18.26-4,27.43-.58,4.64-.19,9.45-1.27,13.94-1.15,4.78.11,9.29,5.14,11.84,2.73-4.34,5.66-8.62,8.16-13.14,1.31-2.35,3-5.34,2.54-7.66-1.35-7-3.84-13.75-5.44-20.7-.4-1.71.91-3.82,1.43-5.74a35.43,35.43,0,0,1,4.63,3.34c.59.57.45,1.9.6,2.89.65,4.08,1.26,8.17,1.94,12.25a8.15,8.15,0,0,0,.58,1.72c4.06-2,4.93-4.35,4.6-7.57a21.57,21.57,0,0,1,.18-7.44c.68-2.67,2.27-5.1,3.47-7.63l1.54.56a15.81,15.81,0,0,1,0,3.23c-.86,4.09-1.91,8.14-2.79,12.23-.56,2.61-.89,5.27-1.42,7.89-.13.66-.46,1.65-.92,1.8-6.9,2.22-2.17,4.45,0,6.61,2.65,2.68,4.79,5.4,4,9.63-.53,2.76-.38,5.65-.57,9,6.29-3,8.56-6.51,8.09-10.8-.23-2.13,0-4.32,0-7.17A24.87,24.87,0,0,1,346.32,80a3.73,3.73,0,0,1-.64-3.41c.25-.62,2.18-1,3.19-.76,3,.7,5.3,2.27,5.8,5.73a10.18,10.18,0,0,0,1.48,2.92c6.82-1.88,6.82-1.88,5.78-6.35-5,4-5,3.83-7.11-2.44-.71-2.06-2.57-3.77-4.1-5.46a28.28,28.28,0,0,0-3.67-2.94c2-3,3.48-2.33,5.73-1,5.17,3.15,8.13,10.4,16.14,8.57,1.63-.37,3.72,1.25,5.6,2-1.44,1.59-2.8,3.28-4.35,4.76-3.93,3.76-8,7.38-11.9,11.18-.49.48-.17,1.72-.44,2.53-1.51,4.46-2,9.47-7.5,11.54a6.07,6.07,0,0,0-3,3.91,79.94,79.94,0,0,0-1.08,9.69c.93.56,2.07,1.19,3.16,1.89,4.46,2.89,5.75,2.64,9-1.69,1.66-2.23,3.27-4.51,5.11-6.58s4.12-3.7,3.56-7c-.09-.56,1.07-1.67,1.85-1.91.48-.15,1.61.72,1.93,1.38a9.67,9.67,0,0,1,.74,3.4c.55,6.9,4.43,9.39,10.84,6.8,2.69-1.08,5.25-2.48,7.91-3.63,3.41-1.47,3.74-4,2-6.75-2.17-3.42-4.91-6.47-7.11-9.88-.89-1.37-1-3.25-1.47-4.9a23.79,23.79,0,0,1,4.74,1.38c2.24,1.17,4.34,3.92,6.4,3.83,3.7-.15,6.76-.41,8.63,4a192.47,192.47,0,0,0,2.69-19.21c.14-1.62-.13-3.88-1.15-4.9-3.95-3.94-4.7-8.82-4.61-13.89,0-1.53,1.63-3,2.51-4.53a34.6,34.6,0,0,1,4.29,4.36c.56.8-.09,2.35.25,3.43.7,2.22,1.88,4.3,2.51,6.54a96.42,96.42,0,0,1,2.75,11.82c.29,1.92-.53,4-.84,6l1.42.33c1-2,1.53-4.59,3.11-5.82,3.72-2.86,2.32,2.5,4.64,3.45,2.65-3.43,5.66-6.63,7.81-10.33s3.21-7.88,5-11.72c.57-1.19,2.06-1.93,3.13-2.87.48,1.42,1.37,2.85,1.31,4.24s-1.14,2.55-1.74,3.83-1.84,2.68-1.59,3.75c1.61,7-4.74,9.72-7.64,14.15-2.06,3.16-5.48,5.44-8.29,8.11l1.1,1.39a32,32,0,0,1,3-1.53,53.21,53.21,0,0,1,6.87-2.29c.6-.14,1.73.87,2.14,1.61.22.4-.39,1.6-.94,2a71.1,71.1,0,0,1-6.86,4.7C421.44,105.19,420.47,107.84,420.19,111.7ZM165.81,406.32c3,0,6.95-1.2,8.78.26,3.7,2.94,7.44,2.66,11.47,2.73,4.7.07,9.77-.88,13,4.14.38.59,1.84.62,2.81.67,6.49.33,9.16,3.84,8.41,10.32-.17,1.43,1.28,3.2,2.3,4.57.64.86,2.2,1,2.79,1.91,2.35,3.4,6.14,3.63,9.32,3.32,3.42-.35,4.24-3.77,4.25-7,0-.43.63-.87,1.65-2.18,1.23,2.54,2.19,4.49,3.12,6.46,2.32,4.9,5.5,5.88,10,2.94,2-1.34,2.71-.44,4.1,1.21,1.59,1.91,4.18,3.84,6.46,4,1.26.09,3.33-3.25,4-5.37,1.27-3.79,2.48-4.34,6.28-2.78s7.61,3,11.85,1.88a27.94,27.94,0,0,1,6.83-1.26c4.3,0,8.37.28,5.4-6-.13-.28.25-.8.43-1.2,2.66-5.91-.84-10.56-3.79-14.81-1.88-2.72-4.06-6.1-8.58-6.07-1.16,0-2.34-2.58-3.47-4a48.4,48.4,0,0,0-3.16-4.06c-2.1-2.13-4.37-4.07-6.57-6.09a1.39,1.39,0,0,0-1.88-1.13c-4.14,1.31-5.21-.45-5.06-4.35a7.74,7.74,0,0,0-2-4.5c-1.65-2-3.73-3.72-5.56-5.62a27.39,27.39,0,0,0-14.15-8c-1.39-.31-3.27-1.59-3.63-2.81-1.21-4.05-4.43-6.45-6.64-9.61-8.53-12.22-25.25-12.64-35.6-3.62-2.69,2.34-4.91,5.25-9.37,4.87-1.07-.09-3.74,3.82-3.5,5.59.75,5.39,6.67,6.14,10,9.3.27.26,1.29.11,1.65-.2,4.46-3.85,6.22-.66,8.21,2.84.73,1.28,2.49,1.92,3.58,3a17,17,0,0,1,1.93,3c-1.29.14-2.76.73-3.85.32-2.17-.81-4-2.45-6.19-3.26-7.46-2.76-15.29-4.75-20.18-11.92a3.56,3.56,0,0,0-3-1.06c-.57.09-1.29,1.62-1.29,2.5,0,6.52-1.55,13.45,5.68,17.93,2.15,1.33,3.5,4.2.94,7.87-2.46-5.75-5.92-6.81-11.41-4.44-2.65,1.14-6.21.08-8.7,2.89-.6.68-2.57.15-3.91.18,0-1.18-.39-3,.2-3.42,2.39-1.9,4.91-3.94,7.73-4.87,2.6-.86,5.29-2.55,3.68-4.4-3.11-3.55-1.86-6.94-1.61-10.55,0-.13-.41-.3-.67-.49-1.75,1-4,1.57-5.22,3-3.18,3.72-7.18,4.26-11.55,3.87-5.24-.48-9.52,2.08-14,4.17a9.78,9.78,0,0,1-3.53,1.3c-4.69.1-9.39.06-14.08-.17-1.08-.05-2.11-1.07-3.17-1.65.89-.89,1.67-2.4,2.68-2.57,3.54-.62,7.25-.39,10.73-1.2,3.67-.85,7.15-2.56,10.73-3.83,2-.7,4-1.83,6-1.84,8.73-.06,8.42,0,8.85-8.94a58.37,58.37,0,0,1,2.81-15.28c.74-2.28,2.17-3.76.2-6.09s-4.23-2.1-6.68-1.22c-.8.29-1.61.91-2.37.84-6-.51-12-.94-18-1.81-6.34-.93-10.21,1.28-11.57,7.66-.12.57-1,1-2.46,2.34-.83-2.51-1.36-4.38-2.06-6.19-.62-1.63-1-3.95-2.24-4.56s-3.68,0-5,.91c-1.64,1.2-2.74,3.21-3.91,5-1.36,2.08-2.32,4.47-3.92,6.31-.74.85-2.59.72-3.94,1-.18-1.07-.87-2.43-.45-3.14,1.61-2.76,3.77-5.19,5.35-8s3.2-5.5,3.64-8.43,1.59-4,4.31-5c4.46-1.71,8.55-4.38,12.8-6.64l-.68-2.07c-5.18.62-10.34,1.38-15.53,1.84-5.49.5-11.36-1.3-16,3.52-1.27,1.32-3.84,1.3-5.32,2.5a42.68,42.68,0,0,0-7.64,7.55c-2,2.77-5.9,5.34-3.32,9.1a64.73,64.73,0,0,1-5.86,3.65,5.58,5.58,0,0,1-3.55.4c-.5-.12-1.18-1.94-.87-2.52a75.83,75.83,0,0,1,6-9.93c1.72-2.32,4.11-4.15,6.26-6.13,4.65-4.29,9.38-8.51,14-12.85.73-.69,1.56-2.57,1.35-2.75-2.8-2.38-5.48-5.74-8.76-6.56-7.48-1.86-13.41,2.39-18.79,7.1-2.32,2-4.34,4.44-6.78,6.33-.84.65-2.51.24-3.8.32a22.86,22.86,0,0,1,1.94-3c1.45-1.6,3-3,4.85-4.84-4-1.93-8.05.67-10.52-2.13,6.16-1.67,12-3.1,17.65-4.89,1.58-.49,2.82-2,4.21-3.1-1.39-1.21-2.71-2.52-4.2-3.59a5.66,5.66,0,0,0-2.85-1.05c-3.94-.26-5.15-2.67-6.13-6.15-.89-3.2-1.8-7-5.84-8.08-2.77-.75-5.65-1.14-8.4-1.95-.9-.27-1.54-1.38-2.3-2.11l-.24-1.23c6,1,7.84-1.46,7.13-6.55-.15-1.09,1.41-2.42,2.17-3.64l2,.15c-3.26,5.3,1.08,7.44,3.15,10.49a87.31,87.31,0,0,0,6.5,8.95c1.07,1.2,3.12,1.7,4.82,2.13,1.32.33,2.79.06,4.84.06-1-3.11-2.14-6.16-2.88-9.32-.29-1.25.33-2.72.54-4.09,1.15.8,2.78,1.35,3.37,2.45,2.26,4.26,4,8.81,6.34,13,1.14,2.06,3.21,3.61,4.85,5.39l1.37-.87-.66-5.56.91-.77,13.32,11.23L84,299l.28,1.05,6.1-.62c.48-4.65.12-8.28-5-9.72-1.21-.34-2.09-1.93-3-3-2.16-2.47-4.25-5-6.38-7.48-3-3.54-8.63-5.18-8.33-11.85,5.15.48,6.41,6.38,11.78,8.32-.74-2.36-1.22-3.68-1.55-5.05a20.68,20.68,0,0,1-.33-2.86c1,.36,2.31.44,2.83,1.13a7.57,7.57,0,0,1,1.5,3.9c.33,6.36,3.53,10.82,9.61,12.78a6.23,6.23,0,0,0,2.85,0,17.78,17.78,0,0,0,2.77-.95c0,1.25.34,2.67-.13,3.72-3,6.74-.21,12.51,7.07,14.17,4.13.94,8.31,1.73,12.34,3,2.59.8,4.86,2.81,7.46,3.35,2,.41,5.18.1,6.19-1.19,2-2.54-1.11-3.86-2.75-5.36-.16-.15-.11-.54,0-.05,2.11-3.73,5.35-6.93,5.36-10.14,0-3.56.26-6,3.69-7.67A8.56,8.56,0,0,0,135,283c-6.24-3.82-13.43-3.7-20.31-4.77-2.63-.41-5.86.88-7.07-2.74-.78-2.32-1.17-4.78-2.07-8.63,5.48,3,9.65,6.17,14.34,7.51s9.91.85,14.9,1.15l.28-1.39c-2.81-2.72-5.77-5.31-8.34-8.24-.66-.74-.13-2.53-.15-3.85a12.42,12.42,0,0,1,3.49.44,4.25,4.25,0,0,1,2.13,2.11c2.27,5.55,7.28,6.74,12.91,8.41-1.38-7.3-9.09-12-6.47-20.07a5.23,5.23,0,0,1,2.09,2.44c.38.86.39,1.91.84,2.71q4,7,8.06,13.85c2.25,3.76,8.54,9,11.8,7.53,4.18-1.9,6.54.86,9.41,2.7,1.24.79,3.21,2.19,3.89,1.77,1.93-1.19,3.37-3.18,5-4.86l-.94-1c-1.24.33-2.74,1.27-3.66.87a38.88,38.88,0,0,1-5.86-3.81c.92-.95,1.69-2.44,2.8-2.76,3.56-1,7.24-1.56,10.84-2.29,1.15-3.61.35-5.85-3.21-7.06-3.17-1.09-4.4-3.46-3.56-7.32,1.57.73,2.81,1.72,4.11,1.81a37.87,37.87,0,0,0,8-.42c.35-.06.73-3.16.51-3.24-4.61-1.68-9.23-3.61-14-4.47-4.49-.8-9.49.68-12.86-3.88a2.78,2.78,0,0,0-2-.58c-4.23.16-6.72-1-5-5.91a1.63,1.63,0,0,0-.61-1.44c-2.82-1.74-5.52-3.95-8.6-4.91a91.67,91.67,0,0,0-13.77-2.6,55,55,0,0,0-7-.05c3.82,7.2,12.54,4.23,16.1,10.27-1,.66-2,1.82-2.57,1.64-3.95-1.18-7.85-2.55-11.67-4.08-1.42-.57-2.48-2-3.9-2.6-7.1-2.9-14-1.45-20.76,1.32-4,1.64-6.28.41-6.31-3.5l6.37-1.28-.2-1.31a98.5,98.5,0,0,0-9.76-3.21c-.9-.21-2.77,1-3.19,2-1.8,4.19-2.65,4.49-6.65,1.92-3.54-2.28-7.23-4.34-10.75-6.65a8.46,8.46,0,0,1-2.89-3,3.15,3.15,0,0,1,.33-3c.55-.49,2.2-.33,3,.17a29.78,29.78,0,0,1,3.92,3.48c2.87,2.67,5.63,3.15,8.77.16,1.24-1.18,3.18-1.69,4.86-2.33,2.77-1.06,6-1.5,6.66-6.58-4.15-.73-8.11-1.53-12.11-2.09-2-.28-4.09,0-6.12-.2-5.59-.53-10.09-2.55-11.29-8.3-.26-1.25.55-2.73.87-4.11,1,.83,2.55,1.47,2.91,2.52,1,2.93,2.81,4.15,5.86,4.12,6.83-.08,13.58.14,19.46,4.53.73.54,3.41,0,3.84-.81,2-3.55,4.1-3.18,7.12-1.41,4.75,2.81,11.69,1.47,14.78-2.41-5.07-3.35-10.31-6.26-16.77-5.48-1.64.2-3.41-.18-5,.27-6.87,2-13,.78-18.32-4-.91-.81-1.79-1.65-2.68-2.48,1.11-.72,2.15-1.89,3.34-2.08,2.5-.4,3.72-1.38,3.23-4-.38-2.11-.69-4.23-1.05-6.46-5.17-1.88-6.08-2.83-8.82-8.61-.61-1.29-1.45-2.85-2.61-3.42s-4-.82-4.36-.18c-.84,1.4-.6,3.44-.82,5.36l-5.06-4.48c-35.79,65.18-44,133.16-26.19,204.78,1.2-.28,1.74-.39,2.28-.53,5.24-1.41,10.43-3.82,15.75,0,3.26,2.32,6.84,4.22,10.09,6.57,4.4,3.21,8.61,6.67,13.52,10.49a46.29,46.29,0,0,0,.8-5.3c.3-6.55,5-9.33,10.91-6.37,2,1,3.92,2,5.93,2.83,3.82,1.67,7.84,3,11.44,5.05a7.52,7.52,0,0,1,3.05,4.93c.93,6.44,7.71,13.44,14,13.92,5,.38,5.69,1.3,5.84,6.16,0,1.92,1,3.81,1.51,5.7.62,2.13,1.9,4.3,1.77,6.37a6.82,6.82,0,0,0,4,7.11c1.32.63,3.77-.36,5.37-1.23,3.23-1.76,2.38-4.77,1.91-7.7a15,15,0,0,1,.3-5.2c.38-2,1.23-3.81,1.66-5.75.69-3.08,1.95-6.18,5.53-5.26,3.19.83,4.82.27,6.4-2.41.68-1.14,2.18-1.79,3.7-3ZM139,512.71a36.48,36.48,0,0,1-1.61,4.67c-1.31,2.58-.75,4.37,1.7,5.91,4.93,3.11,9.76,6.38,14.65,9.56,27,17.52,56.52,29,87.75,36.09,21.67,4.94,43.75,6.59,66,6.32a277.91,277.91,0,0,0,68.86-10,262.64,262.64,0,0,0,58.43-23.45A275.31,275.31,0,0,0,482.2,509c6.89-5.94,13.54-12.17,20.3-18.27-.16-.57-.32-1.15-.49-1.73-5.47-.37-10.94-.79-16.42-1.08-3.16-.17-6.38.22-9.47-.28-4.8-.78-9.39-5.22-14.38-.38a2.92,2.92,0,0,1-2.05.37c-5.58-.47-11.15-1.34-16.73-1.42-5.39-.08-11.06-3.53-16.2,1a1.58,1.58,0,0,1-1.29.09c-5-1.63-10.66,3.63-15.28-1.61-.2-.23-1.1.27-1.65.2-6-.81-12.43,5.65-18-1.25-.13-.16-.57-.13-.85-.09-5.2.79-10.79-2.6-15.74,1.49a2.59,2.59,0,0,1-2.42-.16c-3.77-2.75-7.19.08-11.29.84.89,1.51,2.2,3.1,3.55,3.13,5.47.11,7.15,3.63,7.84,8.31a8.88,8.88,0,0,0,2.78-.5c4-2.46,11.42.85,13.9,3.72a14.64,14.64,0,0,0,4.76,3.76c3.41,1.54,3.48,4.45,2.74,7-.67,2.32-2.31,5.6-4.13,6.06-3.24.83-7,.07-10.43-.43-6-.87-11.89-2-17.83-3.1l-1,.6,5.34,2.17c-2.13,2.22-3.24,3.43-4.51,3.64-4.13.67-8.35,1.51-12.46,1.21-2.55-.19-5.21-2-7.26-3.8-.56-.48,1.06-3.29,1.41-5.09.26-1.35.63-3.26-.05-4s-2.93-1-3.9-.4-1.48,2.36-1.53,3.65c-.07,1.68.84,3.42.64,5.06-.07.66-2.54,1.84-2.89,1.55a26.35,26.35,0,0,1-5.29-5.52c-2.61-3.91-4.37-4.48-7.49-1.06-2.85,3.11-4.85,3.87-7.25-.36-1.72-3-5-3.23-7.08-1.13-2.68,2.7-5.14,3.68-8.73,2.53-1-.31-2.25.34-3.4.51-3.22.47-6.48,1.42-9.67,1.23s-6-1.87-9.15-2.28c-1.6-.22-3.5.65-5,1.46-3.18,1.7-6,4.57-9.32,5.36-5.71,1.34-11.72,1.32-17.57,2.13-2.64.37-5.16,1.53-7.78,2a57,57,0,0,1-10.63,1.54c-3,0-6-1.21-9.08-1.69-10.19-1.61-20.67,2.41-30.85-2.39-5.37-2.52-11.69-3-17.59-4.44-1.37,6.45-3.21,8.15-8.93,8-4.94-.1-6.65-2.39-4.36-6.71s-.1-7.14-2.18-10c-1.8-2.42-7.23-.87-8.57,1.85a4.92,4.92,0,0,1-3,2.26A25.51,25.51,0,0,1,139,512.71ZM415.35,172.17c-.16,2.83-1.27,5.17,2.5,5.35.65,0,1.72,1.4,1.73,2.15a3.34,3.34,0,0,1-1.64,2.37c-2,1.1-4.28,1.72-6.27,2.84-1.06.61-2.42,1.84-2.45,2.83,0,1.3.75,3.33,1.78,3.83,2.67,1.3,5.69,1.89,8.54,2.87s5.85,2.24,8.82,3.22,6.27,2.33,9.47,2.56c1.19.09,2.55-2.56,3.87-3.92a4.08,4.08,0,0,1,1.42-1c5.44-2.08,6.63-7.19,7.41-11.85.7-4.16,3.18-6.46,5.93-8.8.57-.49,2.18-.23,3,.23.42.24.44,1.83.12,2.59-1,2.25-3.23,4.46-3.08,6.56.38,5.66-3.06,8.44-6.77,11.38a11.89,11.89,0,0,0-1.87,2.51l.64.45,17.34-7.5.81,1.4c-2.19,3-4,6.26-8.28,7.25-5.05,1.16-8.68,5.22-8.17,9.73,1.9-1.33,3.39-2.48,5-3.49,2.85-1.8,5.78-3.47,8.62-5.28,2-1.26,4.38-2.27,5.68-4,4.67-6.37,8.88-13.07,13.41-19.55,2.42-3.46,2.15-5.94-1.69-7.47-2.35-.94-5.11-.79-7.59-1.47-1.05-.28-1.86-1.44-2.77-2.19.88-.85,1.64-2.2,2.66-2.43a18.86,18.86,0,0,1,5.67-.13c2.4.19,3.33-.77,3.61-3.16.8-6.73-.3-12.46-6.14-16.93-2.78-2.12-5-4.67-8.82-3.06-4.72,2-8.94,4.3-10.56,10-1.7,5.94-4.21,11.63-10.52,14.48-1.19.54-2,1.94-3,3l1,1,4.39-2.35c.93,1.52,2.38,2.88,2.46,4.31.12,2.27-7.64,6.47-9.83,5.61-4.2-1.63-8.27-3.77-13-1.61-1.07.49-2.63.13-3.91-.11C421.81,173.69,418.78,172.94,415.35,172.17ZM300.23,310.5c.18-1.46.22-2.13.35-2.79,1.69-8.44-1.73-16.21-4.07-23.85-1.05-3.41-1.43-8-5.92-10.56-5.39-3.1-9.79-7.87-14.77-11.72-2.28-1.76-4.78-3.59-7.47-4.34-1.4-.39-3.43,1.53-5.18,2.39-.52.26-1.32.82-1.58.64-4.39-3.08-5.24.76-6.09,3.4-.71,2.2-.48,4.7-.67,7.06,2.24,0,4.49,0,6.72.09,1.13,0,2.66-.14,3.27.49a3.54,3.54,0,0,1,.48,3.29c-1.78,3.06.13,4,2.3,5.33,3.4,2.1,7.73,3.14,9.17,7.72.3,1,1.54,1.73,2.48,2.4,6.2,4.44,13,8.19,16.57,15.49C296.65,307.23,298.39,308.48,300.23,310.5Zm3.48-177.79c-2.31-2.08-5.89-3.83-6.95-6.56-2-5.16-5.72-6.45-10.34-7.34-3.81-.74-5.49-4-3.55-7.19,2.16-3.55.46-5.28-2.48-6.34-1.85-.66-4-.55-6-.76-3.22-.32-5.85.81-5.85,4.25s2.77,4.14,5.88,4.31c1.77.09,3.48,1.26,5.23,1.94-1.26,1.46-2.26,3.66-3.83,4.22-2.65.94-5.83.37-8.46,1.32a12.51,12.51,0,0,0-5.7,4.44c-1.45,2.06-.42,4.07,2,5.33.72.37,1.21,1.9,1.19,2.89,0,3.45,1.77,5.73,4.77,6.48,3.22.81,6.42.43,8.1-3.37.4-.89,1.91-2.09,2.62-1.92,3.89.92,8.09-2,11.84,1.08.58.47,2.21-.28,3.33-.56C298.25,134.23,301,133.46,303.71,132.71ZM178.9,241a8.7,8.7,0,0,0-1.33-2.37c-4.57-3.81-9-7.84-13.88-11.19-2.61-1.78-6.21-2-9.06-3.54-4.79-2.55-11.32-2.79-13.22-9.53-.25-.88-1.66-1.49-2.61-2.1-4.76-3.08-9.32-1.72-14.17.15-3.54,1.36-8,3.05-11.18,2-5.1-1.69-8.54-.28-11.84,2.8-1.23,1.16-2.53,3.52-2.15,4.86.73,2.53,3.17,2.68,5.82,2.28,12.52-1.91,25-4.19,37.22,2,5.76,2.93,12,4.81,18,7.44,3.34,1.48,7.19,2.86,9.46,5.46C172.8,242.57,175.3,242.13,178.9,241ZM419,222.94h3.61c2,0,4.11.12,6.16,0,3.4-.17,7.14-4.42,6.4-7.48-1.34-5.56-4.38-9.89-10-11.83-2.58-.88-5.33-1.25-7.86-2.23-4.62-1.79-9.09-4-13.71-5.75a6.29,6.29,0,0,0-4.13-.06c-.48.17-.61,2.31-.33,3.39,1.18,4.41.49,5.44-4,5.93a51.59,51.59,0,0,0-5.71,1.29c3,3.37,5.81,4.18,9.18,1.85,1.15-.79,2.69-1.23,3.49-2.26,2.47-3.21,5.58-1.85,8.41-1.23.62.14,1.5,3,1,3.77-1.88,3-4.63,5.52-6.35,8.61-1,1.8-.83,4.36-.7,6.55,0,.38,2.44.63,4,1v-5.13C417.15,216.44,417.15,216.44,419,222.94Zm12.5,68.39c-4.92-2.66-9.51-5.42-14.33-7.67-3.38-1.58-7.09-2.46-10.65-3.66-4.45-1.49-8.88-3-13.37-4.4-.63-.19-1.64.45-2.35.91-4.11,2.67-8.26,5.29-12.24,8.14a29.36,29.36,0,0,0-5.82,5.24c-2.55,3.14-1.42,5.75,2.55,5.74a24.37,24.37,0,0,0,8.3-1.6c4.93-1.84,9.52-5.11,14.56-6a41.65,41.65,0,0,1,22.64,2.52,42.44,42.44,0,0,0,19.28,2.5,70.72,70.72,0,0,0,7.54-1.45C441.51,284.82,442.32,286.17,431.49,291.33Zm-63.23-23.74c-2.46-1.48-3.91-2.3-5.3-3.2s-2.91-2.8-3.76-2.5a105.26,105.26,0,0,0-15.71,6.71c-2.35,1.29-1.68,4,1,5,2.28.79,4.83.76,7.19,1.36a20.77,20.77,0,0,1,3.91,1.91c-.78,1.26-1.3,2.83-2.38,3.72-2.83,2.35-5.76,2.53-9.27.68A10.3,10.3,0,0,0,330.11,285c-.48.83.28,3.41.42,3.41,3.72-.12,6.83,4.1,11.15,1.08,2.5-1.75,5.48-.87,6,3,.49,3.53,2.92,3.57,4.52,1.61,2.86-3.53,5.74-7.4,7.13-11.62.92-2.8,1.78-4.94,4.08-6.72C366.35,273.54,368.29,270.63,368.26,267.59Zm-59-94.55-1-.31c.25,2.21.56,4.42.7,6.64a3.91,3.91,0,0,1-.54,2.66c-.37.38-1.68,0-2.51-.26-1.64-.49-3.19-1.33-4.84-1.67-5.8-1.18-10.25-7.82-9.38-13.65.37-2.51-.27-5.15-.09-7.7.31-4.68-3.81-3.28-5.93-4.16-1.78-.74-5.48-.72-6.07.28-1.74,3-2.4,6.59-3.26,10a10.4,10.4,0,0,0,3.34,1.24c1.41.23,2.9,0,4.35.09,3.31.27,4.37,1.75,2.88,5a6.1,6.1,0,0,0-.07,3.94c.94,3.18,2.15,6.29,3.3,9.4,2.14,5.75,5.77,10.14,9.74,12,4.29-3.62,8.08-6.49,11.43-9.8,1.29-1.27,2.56-3.79,2.16-5.32C312.62,178.5,310.68,175.83,309.22,173ZM180.61,311.57c-3.32-4.14-5.77-7.91-8.91-11-8.23-8-18.52-8.85-28.78-7.73-.93,2.65-2.16,4.87-2.4,7.19s-.22,5.75,1,6.56c2.22,1.41,5.41,3.86,8.28-.21,2.09-3,3.78-1.78,4.65,1.37,2,7.38,6.49,7.77,13,4.16,3-1.66,5.62-2.71,8.82-.28C177.24,312.34,179.18,311.63,180.61,311.57ZM334.46,152l1.31-.41c-.7-2.19-1.56-4.34-2-6.58-.31-1.39-.62-3.22,0-4.31,3.51-6.1,3.66-11.79-1.73-17.48,5.89-3.59,4.24-7.81,1.24-12.24-1.34-2-2.35-4.21-3.49-6.31,7.4-4.41,7.62-5.54,3.34-15.59-.6,1.28-.85,3-1.82,3.69-7.48,5.42-7.27,14-8.16,21.6-.79,6.72.95,13.75,1.61,20.64a2.47,2.47,0,0,0,.6,1.61c4.17,3.19,3.37,7.68,3.1,11.64ZM280,181.54c-2.74,2.39-4.55,4.24-6.63,5.71s-4.4,2.4-6.53,3.71c-1.23.74-2.2,1.92-3.44,2.63-4.43,2.51-5.29,6.34-2.27,10.69,6.46-1.85,12.86-3.5,19.13.81.85.59,2.75.35,3.8-.19,1.87-1,3.42-2.18,5.3-.05.12.13,2.57-1.2,2.5-1.59a13.47,13.47,0,0,0-1.8-4.52c-2.5-4-5.21-7.94-7.69-12A44.32,44.32,0,0,1,280,181.54Zm25.07,74.3a35.91,35.91,0,0,0,.47-5.31c-.3-4.86-.56-9.74-1.26-14.54-.94-6.41-3.84-8.47-9.62-6.68-3.9,1.21-6.21-.41-8.59-3a9.15,9.15,0,0,0-3.66-2c-.18-.07-1.53,1.93-1.34,2.18a10.2,10.2,0,0,0,3.23,2.76c2.74,1.39,5.61,2.53,9.61,4.3-2.28,1.25-3.17,1.86-4.15,2.26-1.84.74-3.83,1.17-5.59,2.08-2.56,1.32-2.42,2.49.07,4.28,4.66,3.34,9.57,6.68,13.22,11C299.78,255.85,301.46,256.91,305.11,255.84Zm-72.93,83c2.34,3.33,4.55,6.53,6.8,9.69,4.12,5.8,7.57,7,14.46,5.29.72-.18,1.6.4,2.4.37,2.47-.1,6.08.6,7.15-.72,1.7-2.08,1.76-5.53,2.28-8.44a4.87,4.87,0,0,0-3-1c-.95.17-1.71,1.32-2.56,2l-1.37-.17c-.17-2.28-.34-4.55-.55-7.38-4.61,1.63-9.4-2.88-14.5.16-.68.4-2.4-.05-3.09-.7C237.17,335.2,234.79,336.6,232.18,338.89Zm81.25-175.83.84-.36c1.86,1.86,4.09,3.49,5.5,5.65,2.09,3.2,5.89,5.63,7.73,3.91,2.49-2.35,2.2-5.41.06-7.85-2.45-2.79-4.92-5.95-8.08-7.65-4.91-2.63-6.55-8.4-11.62-10.72-2.29-1-3.95-3.51-6.26-4.45a5.67,5.67,0,0,0-5,1.23c-1.66,1.67-3.91,4.52-3.45,6.2,1.42,5.25,6.53,7.16,11,9.38.36.18,1-.3,1-.29l1.56-5c1.45,1,3.39,1.74,4.24,3.13C312.22,158.29,312.66,160.78,313.43,163.06ZM222.31,327.59l1.46,1.69c6.75-.46,13.5-1.06,20.26-1.28,1.85-.06,3.72,1,5.6,1.57,1.44.4,2.9.74,4.36,1.1-.64-1.57-1-3.36-2-4.68a41.92,41.92,0,0,0-5.28-5.55,55.9,55.9,0,0,0-6.59-5.43,31.92,31.92,0,0,0-7.13-3.68c-1.52-.53-4.62-.62-4.87,0C225.92,316.63,224.19,322.14,222.31,327.59ZM96.87,178l1.52-1.17c-.38-2.91.26-6.68-1.33-8.58C90.84,160.82,83.91,154,77,146.69L66.87,162.34a16.46,16.46,0,0,0,3.32.35c5.36-.77,8.71,2,12.42,5.56C86.69,172.2,92.07,174.8,96.87,178ZM194,293.63c1,.16,1.45.38,1.81.28,10.39-3,20.22-2.1,29.36,4.06a6.27,6.27,0,0,0,2.85,1c2,.21,4.66.56,4.53-2.33-.06-1.44-1.85-3.18-3.3-4.11-2.76-1.78-6.36-2.51-8.65-4.69-3.5-3.31-6-7.61-9.3-11.23-1.55-1.73-3.79-2.84-5.92-4.38v9.42c2.77,3.21,2.09,4.78-3.21,5.94C198.81,288.3,195.42,289.24,194,293.63ZM364,185.48c-4.65-4.75-9.74-2.71-14.37-3.38a9.35,9.35,0,0,0-8.88,3.64,35.86,35.86,0,0,0-6.1,9.73c-.74,1.9.48,4.62,1.1,6.9.09.33,2,.65,2.65.26,5.81-3.61,12.06-6.75,14.42-14,.56-1.74,2.22-3.13,3.37-4.68l1.43.26c.43,2.47.86,4.94,1.28,7.37,2.77-2.17,5.64-4.19,8.22-6.53s1.19-4-1.15-6.15Zm-173.31,8.3c-5.26-1.2-9.79-2.61-14.43-3.2-4.46-.57-9.18,1.12-13.36-1.92a69.12,69.12,0,0,0-6.35-3.7c-1.94,6.18,6.51,6.18,6.49,11.21l-3.38,4.33c2.37,0,4.13.54,4.91-.1,3.85-3.13,6-.36,7.86,2.22,2.77,3.93,7.43,4.63,11.69,1-1-.7-1.86-1.42-2.81-2-2.49-1.52-2.23-3.39-.95-5.59,1.65-2.85,2.94-.87,4.53.08a42.19,42.19,0,0,0,5.27,2.18Zm-41.86,133c-7.92-9.51-36.72-7.83-42,1.89,6.52-.21,12.82,2.46,19-.89a2.38,2.38,0,0,1,2-.18c4.64,3.57,9.93,1.26,14.89,1.58C144.49,329.27,146.43,327.73,148.78,326.75Zm109.5-186h-2c-6.74,0-8,1.7-4.3,7.24,2.32,3.44,5.91,6.16,9.34,8.64,3.84,2.78,8.37,1.75,11.57-1.82,2.21-2.47,1.6-4.35-1-6.06-1.78-1.19-3.93-2.19-5.12-3.84C264.46,141.6,261.75,139.81,258.28,140.76Zm57.27,200.5.89,1.2c1.21-1.38,3.06-2.58,3.53-4.17,1.64-5.56,2.81-11.26,4.13-16.91.23-1-.05-2.37.52-2.95,4.71-4.74,3.54-13.05,10.21-16.74.72-.39,0-3.45-.11-5.28-1.64.44-4.21.38-4.77,1.41-3.05,5.62-8.83,9.51-9.71,16.57-.8,6.48-2.63,12.83-3.86,19.26C315.9,336.15,315.82,338.72,315.55,341.26Zm5.91-75.48c4.94,0,12.83-7.93,11.31-10.47-1.95-3.27.5-4.81,1.12-7.08s1.8-4.4,1.82-6.61c0-4.56-.92-9.17,1.53-13.45.09-.14-.19-.5-.31-.76-6.33-1.38-6.18-1.28-8.17,4.69-1,2.93-3.27,5.51-.28,8.54.23.23-.66,1.5-1,2.32a12.3,12.3,0,0,0-1,3.27C326.16,252.8,327.53,259.7,321.46,265.78ZM515.79,150.6l.69-.21a7.77,7.77,0,0,0,0-1.74c-.35-1.59-.79-3.17-1.19-4.74-1.61,1-3.64,1.7-4.73,3.12a49.52,49.52,0,0,0-6.72,10.54c-1,2.38-.71,5.61,0,8.2.23.87,3.8,1.75,5.29,1.18a26.13,26.13,0,0,0,7.82-5c.91-.81,1-3,.77-4.5A52.52,52.52,0,0,0,515.79,150.6ZM352,239.36c2,2.43,3.69,5.44,6.2,7.17,7,4.8,13.91.24,20.77-1.08,1.2-.23,1.93-2.91,2.87-4.46l-.83-.92c-5.37,2.13-10.09-.13-14.45-2.34C361.52,235.19,357.23,235.21,352,239.36Zm-230.19-53.1c1.16-4.4,0-7.33-2.71-10.59-3.84-4.66-9-3.67-13.74-4.63-1-.22-2.76,1.73-3.8,3a3.19,3.19,0,0,0,.45,2.67c4.19.76,2.92,4,3.1,6.52.25,3.47,2.54,4.9,5.18,2.82C114.14,183,117.69,183.69,121.78,186.26Zm45.77,149.5c-2.89,2.45-5.14,5.13-8,6.65-6,3.17-10.59,12.64-7.15,18.41C164.54,358.56,167.28,347,167.55,335.76ZM391.61,165.1l-1.13-.19c-1.88,4-3.75,8.05-5.73,12.31,9.71.6,16.64-5.42,25.26-8.85-5.51-.8-4.91-2.71-2.08-5.77,1.38-1.49,1.68-4,2.47-6l-1.13-.89c-2,1.1-5.52,2-5.66,3.33-.59,5.61-4.5,8.15-8.36,10.94-2.07,1.5-3.27.72-3.62-1.61A23.63,23.63,0,0,1,391.61,165.1Zm-91.94,54.09c-13.47-8.15-30-8.61-34.68-2.27,6.16.46,2.55,4.36,2.13,8.19,2.19-1.54,3.65-3.42,4.8-3.24,5.63.88,7.32-5,11.54-6.27,1.63-.51,3.76-1.58,4.88-1s1.49,3,2.14,4.6c.38.94.47,2.43,1.11,2.71a4.87,4.87,0,0,0,3.46-.11A35.44,35.44,0,0,0,299.67,219.19Zm-53.75,39.92a3.21,3.21,0,0,0,2-.21c1.9-1.26,4-2.59,5.11-4.44.45-.8-1.11-3.64-2.42-4.4-2.64-1.52-5.75-2.25-8.66-3.32-3.51-1.29-5.78.32-5.63,4C236.49,254.26,241.42,259,245.92,259.11ZM397.31,135.33A7.6,7.6,0,0,0,402,124.16a22.51,22.51,0,0,1-2.69-6.27c-.73-3.47-2.3-3.39-4.45-1.48a94.5,94.5,0,0,0-8.83,8.49c-1.68,1.94-2.58,4.56-3.82,6.88l1.07.77,15-11.72C397.92,126.56,397.63,130.78,397.31,135.33ZM206.46,180.76c2.26,3.34,4.09,6.15,6.08,8.85.23.32,1.35.13,2,0,3.67-.86,7.05-11,4.3-13.62-1.62-1.54-5.1-3.55-6-2.9C210.29,174.81,208.69,177.88,206.46,180.76Zm110.33,22.31c-1.18-1.9-1.88-4.31-3.41-5.09-1.34-.69-3.69.27-5.46.89-1,.35-1.8,1.43-2.65,2.22-3.14,2.89-2.74,5.86.74,8.16,1.17.77,1.73,2.45,2.64,3.65.56.73,1.16,1.68,1.93,1.91.52.15,1.71-.64,2-1.28C314,210.27,315.26,206.93,316.79,203.07Zm72.35-58.38c-1.31-.6-2.2-1.08-3.14-1.43-1.55-.57-3.42-.67-4.64-1.63-2.93-2.33-9-1.15-10.12,2.33a3.1,3.1,0,0,0,.42,2.38c1.53,2.17,3.7,4,4.76,6.36,1.62,3.59,3,2.72,5,.55s3.83-4,5.72-6C387.71,146.63,388.17,145.94,389.14,144.69Zm-189.45,2.07c1.08,2.79,1.87,4.9,2.72,7,2.29,5.68,8.44,6.44,12.31,1.54,2.13-2.7.25-8.14-3.15-8.44C207.87,146.51,204.11,146.76,199.69,146.76ZM415.53,259.29c8.33-.46,16-.67,23.58-1.46,1.86-.19,3.61-2.16,1.5-4.64-2.34-2.75-4.66-4.39-8.16-1.53-1,.81-2.72.67-4.08,1.06C423.93,254,418.65,253.44,415.53,259.29ZM446,275a6.14,6.14,0,0,0,3.5,6.94c5.85,2.51,11.9,4.57,17.89,6.75.43.16,1-.21,1.93-.42-.36-1.13-.37-2.45-1-2.86a109.74,109.74,0,0,0-12.13-7.36C453.15,276.6,449.67,276.08,446,275Zm-23.06-.41c-1.61-2-2.29-3.38-3.41-4.06-3.16-1.92-6.51-3.54-9.78-5.29s-4.92.91-6.46,2.61c-1.39,1.54-.94,3.36,1.67,4.19,4.78,1.51,9.41,3.48,14.2,4.95C419.88,277.24,421.14,275.78,422.91,274.61ZM216.35,310c-1-.4-2.48-1.45-3.92-1.43s-4.24,1-4.28,1.68c-.36,5.49-.2,11-.2,16.53l1.23.56c1.57-1.56,3.9-2.86,4.53-4.74C215,318.62,215.48,314.39,216.35,310Zm155.86-86.44c.09-5.6-2.79-9.38-7.85-10.1-2.09-.29-3.87.09-2.81,3.13.73,2.12.71,4.51,1.48,6.61,1,2.84,2.19,5.83,6.16,5.71C373.4,228.72,371.65,225.41,372.21,223.51ZM200.28,191.76c-.9,3.77-2.07,7.28-2.37,10.86-.09,1,2.17,3,3.61,3.29,2.6.55,5.4.26,8.12.15.7,0,1.83-.59,2-1.1a3.37,3.37,0,0,0-.52-2.69C207.81,198.93,204.4,195.74,200.28,191.76Zm153.36,35.55c-10.62,3.35-15.4,12.16-12.39,23.05,1.49-2,3.54-3.51,3.58-5.06.16-5.59,3.45-9.2,6.77-13C352.59,231.14,352.83,229.36,353.64,227.31Zm-73,29.7-1.27,1.59,23,17.22c1.95-3.38,1.15-6.67-2.13-8.49-5-2.78-10.2-5.28-15.31-7.93C283.45,258.65,282.06,257.81,280.64,257Zm-42.91,21.93c-.5-2.39-.86-4.49-1.39-6.53-1.24-4.68-5-6.94-9.84-6.27-3.05.42-3.52,2.46-2,4.23C227.91,274.36,231.11,279,237.73,278.94Zm55.18,65c.95-6-2.34-11.47-6.12-12.7-5.76-1.87-12.6-2.73-12.69-11.52-2.82,4.18-1.9,7.07,1.8,9.09s7.45,3.89,9.5,8.37C286.6,339.78,290,341.4,292.91,343.91ZM471,243.83l.8-1.86c-.61-1-1.71-2.83-1.77-2.8-3.43,1.91-5.48-.82-8.15-2a10.15,10.15,0,0,0-6.7.11c-1.13.37-2.19,2.65-2.2,4.07,0,.82,2.14,2.28,3.37,2.35C461.21,244,466.1,243.83,471,243.83Zm-72.43-49.16-.06-1.93c-1.31-.85-2.68-1.62-3.91-2.57-3.73-2.86-7.88-2.28-10.89,1.23-2.06,2.39-.54,4.19.78,5.71.47.54,2.49-.17,3.78-.45,1-.22,1.86-.79,2.83-.95C393.57,195.29,396.07,195,398.56,194.67ZM359,156.49c-5.31,3.39-8.43,8-11.09,12.93a2.79,2.79,0,0,0,.65,2.65,4.26,4.26,0,0,0,3.16-.21c2.42-1.13,4.72-2.53,7.59-4.11-.08-1.3-.24-3.16-.3-5S359,159,359,156.49ZM189.5,173.23c-.85,2.79-1.88,5.08-2.09,7.45-.07.84,2.15,2.83,2.78,2.63,2.8-.91,5.9-1.95,7.86-3.95.84-.85-.84-4.17-1.36-6.38-.06-.28.09-.68-.06-.86-.8-.93-1.52-2.28-2.54-2.57-.82-.23-2,.82-3.72,1.62l4.74,2.88-.52.94Zm13.32,106.09c-2.95-4.36-5.66-8.51-8.56-12.53a2.8,2.8,0,0,0-2.58-.8,3,3,0,0,0-1,2.55,4.68,4.68,0,0,0,1.6,2.43c5.92,5.59,5.88,5.52.79,11.63-1,1.24-1.43,3-2.11,4.57l.77.33Zm207.37-33.7c-1.17-1.63-2.17-3.73-3.78-5.09-2.54-2.14-7.12-1-7.56,1.62-.49,2.91-.66,5.86-1,9.27Zm-331.72,154c-3.24,3.1-5.9,5.56-8.47,8.13-2.2,2.19-.52,3.47,1.36,4.26,3.41,1.43,10-3.89,9.29-7.49C80.32,402.87,79.31,401.4,78.47,399.57Zm268.22-188.9c3.62,4.39,7.68,5.29,10.41,2.43a5.44,5.44,0,0,0-.57-7.49C353.83,203.37,350.85,204.85,346.69,210.67Zm10.52-77.29,13.83-2a6.91,6.91,0,0,0-4.28-2.66c-3.73-.67-4.35-1.62-2.18-4.78a51.82,51.82,0,0,1,5-5.43C360.72,119.51,361.1,127.72,357.21,133.38ZM180.69,333c-2.52,4.72-2.24,10.87.49,12.24,4.19,2.1,5.16-2.24,8.5-4.34Zm275.05-70.63c-5.33-6.72-9.59-8.7-11.95.18C449.33,267.55,451.31,267.55,455.74,262.34ZM150.38,134.22l-.41.85c.77.69,1.44,1.72,2.34,2,2.95.93,5,2.23,4.22,5.86-.1.47,1.41,1.84,2.1,1.79,1.48-.11,4.18-1,4.15-1.35-.28-2.55-.37-6.48-1.91-7.26C157.85,134.55,153.93,134.75,150.38,134.22Zm49.06,187.46c1.11-2.25,2.24-4.24,3.07-6.34,1.05-2.66-1.57-6.38-4-5.61-1.82.57-4.06,1.74-4.78,3.27-.52,1.12.91,3.41,1.9,4.88A26.79,26.79,0,0,0,199.44,321.68Zm-45.53-113.3.63-1.6c-3.46-2.29-6.78-4.89-10.51-6.65-.88-.42-4.14,1.74-4.48,3.15-.64,2.63,1.7,3.42,4.18,3.65,2.24.21,4.41,1,6.64,1.42A20.88,20.88,0,0,0,153.91,208.38Zm325.27,68.45c-3.51-6-12.79-7.74-16.77-4C466.64,279.23,473,275.58,479.18,276.83ZM375.83,259.88c1.3.9,2.5,2.42,3.69,2.4a63.7,63.7,0,0,0,9.78-1.19,33.39,33.39,0,0,0,4.61-1.61C387.43,256.54,382,253.47,375.83,259.88ZM174.89,292.47c1.87,1.14,3.28,2.62,4.83,2.78,1.88.19,4.91-.14,5.6-1.32,1.25-2.15,1.14-5.09,1.6-7.71l-6.67-.43a22.24,22.24,0,0,1,1.68,2.55c.47,1.14.85,2.32,1.26,3.48-1.33-.22-3.11,0-3.9-.75C176.55,288.41,176.07,291,174.89,292.47Zm37-72.2c0-2.72,0-4.3,0-5.88,0-4.77-1.84-6.35-6.39-5.39-.84.17-1.54,1.06-2.3,1.62a21.1,21.1,0,0,0,1.87,1.91,19.05,19.05,0,0,0,2.58,1.45l-5.1,2.4Zm-17.09,3.14c1.26,1.56,2.07,2.54,2.86,3.53,2.51,3.16,4.93,6.39,7.6,9.41.52.58,2,.47,3,.38.26,0,.69-1.23.59-1.81C208,230.23,200.58,223.87,194.84,223.41ZM285,314.08l1.79-1.33c-1.28-2.56-2.59-5.1-3.82-7.67-1.64-3.4-3.73-1.9-5.62-.43-2.27,1.76-1.49,3.71.4,5.07C280,311.36,282.56,312.64,285,314.08Zm-108.1-93.14c2.47,8.21,8.86,9,14,11.4.52.24,1.76-.7,2.42-1.35.21-.22-.16-1.58-.59-1.82C187.85,226.55,182.9,224,176.89,220.94ZM262.2,365c0,.54.09,1.08.13,1.62L277,368.88c-2.23-3.09-3.76-7.33-6-7.72C268.36,360.69,265.15,363.54,262.2,365Zm164.06-95.22c.48,4.14,2.37,6.27,5.31,6.1,1.54-.09,3-2.33,4.43-3.6-2.46-1.73-4.87-3.56-7.48-5C428.29,267.05,426.8,269.11,426.26,269.73ZM348.14,157l1.15,1c.76-.79,1.58-1.54,2.28-2.39,1.85-2.21,3.61-4.5,5.47-6.69,1.12-1.33,2.5-2.47,3.5-3.87.49-.69.37-1.8.52-2.72-1.08-.17-2.37-.79-3.19-.4a6.92,6.92,0,0,0-2.59,2.76C352.83,148.75,350.51,152.88,348.14,157ZM238.65,224.21c-3.14-11-1.57-10.62-7.5-9.69C230.16,221.12,232.69,224.57,238.65,224.21Zm154,169.43c.6-3.39,1.44-6.21,1.42-9,0-1-2-2.5-3.3-2.76-.79-.16-2.67,1.47-2.85,2.5C387.32,387.69,387.14,391.19,392.64,393.64Zm-192-145.46-.39,1.46c3.48,2.7,7,5.41,10.68,8.32,1.85-6-3.63-7.12-5.75-10.16C204.79,247.18,202.25,248,200.68,248.18Zm207-134.56,9.46-15C411,99.23,405.25,107.88,407.67,113.62ZM512,254.84l.81,1.13h9.13l1.08-1.36-7.19-4.88C514.71,251.17,513.33,253,512,254.84ZM256.63,212.71c-.05-.56-.11-1.13-.17-1.69a40.44,40.44,0,0,0-4.63-1.31c-2.44-.4-4.83.17-4.4,3.16.21,1.43,2.61,3.89,3.27,3.66C252.86,215.81,254.68,214.06,256.63,212.71Zm-108.91-35c-4.88,1.26-4.88,4.05-4.22,6.5.48,1.76,2.13,3.21,3.25,4.79l2.08-.84C148.48,184.81,148.12,181.47,147.72,177.69ZM262.63,290.77a85.38,85.38,0,0,0-7-6.34c-.67-.49-2.3.31-3.49.52.2,1,.07,2.3.65,3C255.06,290.68,257.69,293,262.63,290.77ZM305.93,172l-6.34-6c-.6,1.29-2,2.91-1.65,3.8.84,2,2.55,3.65,3.9,5.45Zm39.16,132.84c-6.15-.83-12.71,7.2-11.39,12Zm27.83-144.26c-1.5-2.54.73-7-3.95-7.31-.63,0-2.18,3.63-2.08,5.51C367.12,163,370.42,160.6,372.92,160.59ZM270.73,243.05c.47,3.52-1.45,6.83,2.58,8,1.08.32,3.84-1.25,4-2.29C278.21,244.13,273.89,245,270.73,243.05Zm-14,64.17,9.42,11.93C266.23,311.87,261.93,306.29,256.75,307.22Zm-141-141.72c-2.66-7.34-4.9-9.33-8.52-7.59C111.07,165.83,111.22,166,115.76,165.5Zm42.39,44.43c.26,4.42,8.37,9.15,13.5,7.4Zm277.92,26,.71,1.3a37,37,0,0,0,5.34.28c1.06-.09,2.66-.69,2.93-1.45.36-1,0-3-.68-3.44a4.71,4.71,0,0,0-3.87,0A25.94,25.94,0,0,0,436.07,235.94Zm-219.32-9.41-1.89.29a76.49,76.49,0,0,0,.12,8.57c.1.83,1.6,1.88,2.6,2.07.54.1,2.11-1.59,2-2.18C218.84,232.31,217.72,229.44,216.75,226.53Zm61.95-82.21-.75,2c.7.47,1.67,1.5,2.05,1.31,3-1.45,5.44-.45,8,1.22.54.35,1.8-.41,2.72-.65-.5-.93-.88-2.56-1.53-2.67C285.7,144.89,282.19,144.67,278.7,144.32ZM90.83,183.39l-1.43.26a60.41,60.41,0,0,0,.59,8.53c.15.76,2.23,1.13,3.42,1.69.24-1.19,1-2.54.63-3.54A62.91,62.91,0,0,0,90.83,183.39ZM365,202.89c3.34-.46,6.24-.78,9.1-1.35a2.4,2.4,0,0,0,1.47-1.76,2.68,2.68,0,0,0-1.25-1.95C372.38,196.68,366.07,200,365,202.89Zm-132.43,4.53,4.68-2.79c-1.85-1-3.6-2.48-5.58-3-.92-.22-2.29,1.4-3.45,2.18ZM167.24,327.35c-7.4.61-13.71,5.88-12.84,9.31ZM116,191.74a17.32,17.32,0,0,0-3.69-.47c-1.76.24-3.48.74-5.22,1.13.19.52.35,1.49.57,1.5a43.47,43.47,0,0,0,6.25,0C114.47,193.9,114.93,192.94,116,191.74Zm41-37.37h-1.19c.39,2.06.3,4.42,1.32,6.09.67,1.09,3,1.18,5.06,1.91Zm337.5,8.57-2.21.51q1.06,3.84,2.14,7.68l2-.52Zm-74.18-4.27c-.91-1.5-1.76-3.38-2-3.3a26.88,26.88,0,0,0-4.53,2.18l.46,1.12ZM276.87,234c.44-.73.88-1.46,1.31-2.19l-5.55-3.21-1.11,1.81Z" transform="translate(-8.96 -8.78)"/><path d="M456.05,309.31,449,315.2c-.72-1.49-2.13-3.05-2-4.44.17-1.57,1.55-4,2.75-4.23C451.23,306.25,453.06,307.88,456.05,309.31Z" transform="translate(-8.96 -8.78)"/><path d="M200.33,128.76c-1.35.49-2.88,1.61-4,1.3-1.38-.38-2.42-2-3.62-3,1.22-.65,2.48-1.87,3.65-1.79,1.42.1,2.76,1.31,4.14,2Z" transform="translate(-8.96 -8.78)"/><path d="M86.51,332.62l-3.77-3.93c1.19-.76,2.42-2.17,3.57-2.11,1.37.07,2.67,1.39,4,2.17C89.25,329.83,88.2,330.91,86.51,332.62Z" transform="translate(-8.96 -8.78)"/><path d="M94.57,273.09l-2.72,6.32C88.47,276.28,88.77,275.25,94.57,273.09Z" transform="translate(-8.96 -8.78)"/><path d="M162,253.32l7.26.53C165.75,258.18,163.74,257.15,162,253.32Z" transform="translate(-8.96 -8.78)"/><path d="M411.82,515.47c-2.31,1.39-4.15,2.62-6.1,3.64s-4,2.6-5.85,2.42c-3.53-.33-5-4.15-2.34-6.33,3.61-3,2-5.43.15-8.56,1.28-.6,2.38-1.53,3.54-1.6,11.95-.67,23,1.66,32.37,9.76,1.87,1.63,1.54,5.22-.78,5.78s-4.62-.13-6.94,0a17.41,17.41,0,0,0-5.13.93C415.27,523.52,412.81,522.24,411.82,515.47Z" transform="translate(-8.96 -8.78)"/></svg>